<?xml version="1.0" encoding="UTF-8" standalone="no"?>
<!DOCTYPE svg PUBLIC "-//W3C//DTD SVG 1.1//EN"
 "http://www.w3.org/Graphics/SVG/1.1/DTD/svg11.dtd">
<!-- Generated by graphviz version 2.36.0 (20140111.2315)
 -->
<!-- Title: controllers_diagram Pages: 1 -->
<svg width="449pt" height="207pt"
 viewBox="0.00 0.00 449.38 207.00" xmlns="http://www.w3.org/2000/svg" xmlns:xlink="http://www.w3.org/1999/xlink">
<g id="graph0" class="graph" transform="scale(1 1) rotate(0) translate(4 203)">
<title>controllers_diagram</title>
<polygon fill="white" stroke="none" points="-4,4 -4,-203 445.375,-203 445.375,4 -4,4"/>
<!-- _diagram_info -->
<g id="node1" class="node"><title>_diagram_info</title>
<text text-anchor="start" x="242" y="-184.6" font-family="Times,serif" font-size="13.00">Controllers diagram</text>
<text text-anchor="start" x="242" y="-171.6" font-family="Times,serif" font-size="13.00">Date: Feb 18 2014 &#45; 22:35</text>
<text text-anchor="start" x="242" y="-158.6" font-family="Times,serif" font-size="13.00">Migration version: 20140202161047</text>
<text text-anchor="start" x="242" y="-145.6" font-family="Times,serif" font-size="13.00">Generated by RailRoady 1.1.1</text>
<text text-anchor="start" x="242" y="-132.6" font-family="Times,serif" font-size="13.00">http://railroady.prestonlee.com</text>
</g>
<!-- ApplicationController -->
<g id="node2" class="node"><title>ApplicationController</title>
<path fill="none" stroke="black" d="M12,-0.5C12,-0.5 127.642,-0.5 127.642,-0.5 133.642,-0.5 139.642,-6.5 139.642,-12.5 139.642,-12.5 139.642,-80.5 139.642,-80.5 139.642,-86.5 133.642,-92.5 127.642,-92.5 127.642,-92.5 12,-92.5 12,-92.5 6,-92.5 0,-86.5 0,-80.5 0,-80.5 0,-12.5 0,-12.5 0,-6.5 6,-0.5 12,-0.5"/>
<text text-anchor="middle" x="69.8208" y="-77.3" font-family="Times,serif" font-size="14.00">ApplicationController</text>
<polyline fill="none" stroke="black" points="0,-70.5 139.642,-70.5 "/>
<polyline fill="none" stroke="black" points="0,-46.5 139.642,-46.5 "/>
<polyline fill="none" stroke="black" points="0,-22.5 139.642,-22.5 "/>
<text text-anchor="start" x="8" y="-7.3" font-family="Times,serif" font-size="14.00">_layout</text>
</g>
<!-- Web::HomeController -->
<g id="node3" class="node"><title>Web::HomeController</title>
<path fill="none" stroke="black" d="M171.135,-1.48081C171.135,-1.48081 287.987,-1.48081 287.987,-1.48081 293.987,-1.48081 299.987,-7.48081 299.987,-13.4808 299.987,-13.4808 299.987,-79.4808 299.987,-79.4808 299.987,-85.4808 293.987,-91.4808 287.987,-91.4808 287.987,-91.4808 171.135,-91.4808 171.135,-91.4808 165.135,-91.4808 159.135,-85.4808 159.135,-79.4808 159.135,-79.4808 159.135,-13.4808 159.135,-13.4808 159.135,-7.48081 165.135,-1.48081 171.135,-1.48081"/>
<text text-anchor="middle" x="229.561" y="-76.2808" font-family="Times,serif" font-size="14.00">Web::HomeController</text>
<polyline fill="none" stroke="black" points="159.135,-69.4808 299.987,-69.4808 "/>
<text text-anchor="start" x="167.135" y="-54.2808" font-family="Times,serif" font-size="14.00">index</text>
<polyline fill="none" stroke="black" points="159.135,-47.4808 299.987,-47.4808 "/>
<polyline fill="none" stroke="black" points="159.135,-23.4808 299.987,-23.4808 "/>
<text text-anchor="start" x="167.135" y="-8.28081" font-family="Times,serif" font-size="14.00">_layout</text>
</g>
<!-- ApplicationController&#45;&gt;Web::HomeController -->
<g id="edge1" class="edge"><title>ApplicationController&#45;&gt;Web::HomeController</title>
<path fill="none" stroke="black" d="M139.885,-46.4916C146.256,-46.4908 152.712,-46.49 159.086,-46.4893"/>
</g>
</g>
</svg>
