<?xml version="1.0" encoding="UTF-8" standalone="no"?>
<!DOCTYPE svg PUBLIC "-//W3C//DTD SVG 1.1//EN"
 "http://www.w3.org/Graphics/SVG/1.1/DTD/svg11.dtd">
<!-- Generated by graphviz version 2.36.0 (20140111.2315)
 -->
<!-- Title: models_diagram Pages: 1 -->
<svg width="894pt" height="378pt"
 viewBox="0.00 0.00 894.00 378.00" xmlns="http://www.w3.org/2000/svg" xmlns:xlink="http://www.w3.org/1999/xlink">
<g id="graph0" class="graph" transform="scale(1 1) rotate(0) translate(4 374)">
<title>models_diagram</title>
<polygon fill="white" stroke="none" points="-4,4 -4,-374 890,-374 890,4 -4,4"/>
<!-- _diagram_info -->
<g id="node1" class="node"><title>_diagram_info</title>
<text text-anchor="start" x="7.31226" y="-355.1" font-family="Times,serif" font-size="13.00">Models diagram</text>
<text text-anchor="start" x="7.31226" y="-342.1" font-family="Times,serif" font-size="13.00">Date: Feb 18 2014 &#45; 22:35</text>
<text text-anchor="start" x="7.31226" y="-329.1" font-family="Times,serif" font-size="13.00">Migration version: 20140202161047</text>
<text text-anchor="start" x="7.31226" y="-316.1" font-family="Times,serif" font-size="13.00">Generated by RailRoady 1.1.1</text>
<text text-anchor="start" x="7.31226" y="-303.1" font-family="Times,serif" font-size="13.00">http://railroady.prestonlee.com</text>
</g>
<!-- Characteristic -->
<g id="node2" class="node"><title>Characteristic</title>
<ellipse fill="none" stroke="black" cx="84" cy="-240" rx="59.3187" ry="18"/>
<text text-anchor="middle" x="84" y="-235.8" font-family="Times,serif" font-size="14.00">Characteristic</text>
</g>
<!-- Player -->
<g id="node7" class="node"><title>Player</title>
<ellipse fill="none" stroke="black" cx="200" cy="-166" rx="32.5477" ry="18"/>
<text text-anchor="middle" x="200" y="-161.8" font-family="Times,serif" font-size="14.00">Player</text>
</g>
<!-- Characteristic&#45;&gt;Player -->
<g id="edge2" class="edge"><title>Characteristic&#45;&gt;Player</title>
<path fill="none" stroke="#a6c157" d="M117.627,-218.128C134.361,-207.741 154.404,-195.301 170.529,-185.292"/>
<polygon fill="#a6c157" stroke="#a6c157" points="117.381,-218.281 106.512,-219.731 113.133,-220.917 108.885,-223.554 108.885,-223.554 108.885,-223.554 113.133,-220.917 111.258,-227.378 117.381,-218.281 117.381,-218.281"/>
<polygon fill="#a6c157" stroke="#a6c157" points="170.542,-185.284 181.412,-183.834 174.79,-182.647 179.038,-180.011 179.038,-180.011 179.038,-180.011 174.79,-182.647 176.665,-176.187 170.542,-185.284 170.542,-185.284"/>
</g>
<!-- PlayerCharacteristic -->
<g id="node8" class="node"><title>PlayerCharacteristic</title>
<ellipse fill="none" stroke="black" cx="84" cy="-92" rx="81.2082" ry="18"/>
<text text-anchor="middle" x="84" y="-87.8" font-family="Times,serif" font-size="14.00">PlayerCharacteristic</text>
</g>
<!-- Characteristic&#45;&gt;PlayerCharacteristic -->
<g id="edge1" class="edge"><title>Characteristic&#45;&gt;PlayerCharacteristic</title>
<path fill="none" stroke="#3a62e0" d="M84,-213.8C84,-187.827 84,-147.449 84,-120.622"/>
<ellipse fill="none" stroke="#3a62e0" cx="84" cy="-217.966" rx="4" ry="4"/>
<polygon fill="#3a62e0" stroke="#3a62e0" points="84.0001,-120.378 88.5,-110.378 84,-115.378 84,-110.378 84,-110.378 84,-110.378 84,-115.378 79.5,-110.378 84.0001,-120.378 84.0001,-120.378"/>
</g>
<!-- Entity -->
<g id="node3" class="node"><title>Entity</title>
<ellipse fill="none" stroke="black" cx="554" cy="-240" rx="31.5839" ry="18"/>
<text text-anchor="middle" x="554" y="-235.8" font-family="Times,serif" font-size="14.00">Entity</text>
</g>
<!-- EntityInteraction -->
<g id="node14" class="node"><title>EntityInteraction</title>
<ellipse fill="none" stroke="black" cx="585" cy="-166" rx="70.0371" ry="18"/>
<text text-anchor="middle" x="585" y="-161.8" font-family="Times,serif" font-size="14.00">EntityInteraction</text>
</g>
<!-- Entity&#45;&gt;EntityInteraction -->
<g id="edge4" class="edge"><title>Entity&#45;&gt;EntityInteraction</title>
<path fill="none" stroke="#4c1652" d="M564.369,-214.916C567.358,-207.975 570.633,-200.368 573.677,-193.3"/>
<ellipse fill="none" stroke="#4c1652" cx="562.772" cy="-218.627" rx="4.00002" ry="4.00002"/>
<polygon fill="#4c1652" stroke="#4c1652" points="573.679,-193.293 581.767,-185.888 575.656,-188.701 577.634,-184.109 577.634,-184.109 577.634,-184.109 575.656,-188.701 573.501,-182.329 573.679,-193.293 573.679,-193.293"/>
</g>
<!-- Interaction -->
<g id="node15" class="node"><title>Interaction</title>
<ellipse fill="none" stroke="black" cx="442" cy="-18" rx="48.1131" ry="18"/>
<text text-anchor="middle" x="442" y="-13.8" font-family="Times,serif" font-size="14.00">Interaction</text>
</g>
<!-- Entity&#45;&gt;Interaction -->
<g id="edge5" class="edge"><title>Entity&#45;&gt;Interaction</title>
<path fill="none" stroke="#a84df8" d="M531.255,-216.933C522.443,-207.443 512.849,-195.823 506,-184 480.072,-139.244 487.526,-121.897 468,-74 464.135,-64.5193 459.469,-54.3323 455.163,-45.3334"/>
<polygon fill="#a84df8" stroke="#a84df8" points="531.465,-217.152 535.151,-227.48 534.93,-220.757 538.395,-224.362 538.395,-224.362 538.395,-224.362 534.93,-220.757 541.639,-221.244 531.465,-217.152 531.465,-217.152"/>
<polygon fill="#a84df8" stroke="#a84df8" points="455.058,-45.1183 454.734,-34.1572 452.872,-40.6215 450.686,-36.1246 450.686,-36.1246 450.686,-36.1246 452.872,-40.6215 446.639,-38.092 455.058,-45.1183 455.058,-45.1183"/>
</g>
<!-- EntityType -->
<g id="node4" class="node"><title>EntityType</title>
<ellipse fill="none" stroke="black" cx="776" cy="-333" rx="48.9161" ry="18"/>
<text text-anchor="middle" x="776" y="-328.8" font-family="Times,serif" font-size="14.00">EntityType</text>
</g>
<!-- EntityType&#45;&gt;Entity -->
<g id="edge7" class="edge"><title>EntityType&#45;&gt;Entity</title>
<path fill="none" stroke="#3595f2" d="M736.569,-315.837C694.416,-298.558 628.258,-271.439 588.222,-255.028"/>
<ellipse fill="none" stroke="#3595f2" cx="740.492" cy="-317.445" rx="4.00001" ry="4.00001"/>
<polygon fill="#3595f2" stroke="#3595f2" points="588.133,-254.992 580.587,-247.035 583.507,-253.095 578.88,-251.199 578.88,-251.199 578.88,-251.199 583.507,-253.095 577.174,-255.362 588.133,-254.992 588.133,-254.992"/>
</g>
<!-- EntityTypeInteraction -->
<g id="node16" class="node"><title>EntityTypeInteraction</title>
<ellipse fill="none" stroke="black" cx="799" cy="-240" rx="87.3666" ry="18"/>
<text text-anchor="middle" x="799" y="-235.8" font-family="Times,serif" font-size="14.00">EntityTypeInteraction</text>
</g>
<!-- EntityType&#45;&gt;EntityTypeInteraction -->
<g id="edge8" class="edge"><title>EntityType&#45;&gt;EntityTypeInteraction</title>
<path fill="none" stroke="#007fc6" d="M782.387,-306.729C785.452,-294.603 789.125,-280.072 792.237,-267.759"/>
<ellipse fill="none" stroke="#007fc6" cx="781.306" cy="-311.006" rx="4.00001" ry="4.00001"/>
<polygon fill="#007fc6" stroke="#007fc6" points="792.243,-267.735 799.056,-259.142 793.468,-262.887 794.693,-258.04 794.693,-258.04 794.693,-258.04 793.468,-262.887 790.33,-256.937 792.243,-267.735 792.243,-267.735"/>
</g>
<!-- Item -->
<g id="node5" class="node"><title>Item</title>
<ellipse fill="none" stroke="black" cx="384" cy="-166" rx="27" ry="18"/>
<text text-anchor="middle" x="384" y="-161.8" font-family="Times,serif" font-size="14.00">Item</text>
</g>
<!-- ItemType -->
<g id="node6" class="node"><title>ItemType</title>
<ellipse fill="none" stroke="black" cx="353" cy="-240" rx="43.3003" ry="18"/>
<text text-anchor="middle" x="353" y="-235.8" font-family="Times,serif" font-size="14.00">ItemType</text>
</g>
<!-- ItemType&#45;&gt;Item -->
<g id="edge10" class="edge"><title>ItemType&#45;&gt;Item</title>
<path fill="none" stroke="#c4bd12" d="M363.571,-214.447C366.599,-207.416 369.906,-199.734 372.961,-192.64"/>
<ellipse fill="none" stroke="#c4bd12" cx="361.928" cy="-218.263" rx="4.00002" ry="4.00002"/>
<polygon fill="#c4bd12" stroke="#c4bd12" points="372.965,-192.63 381.053,-185.225 374.942,-188.037 376.92,-183.445 376.92,-183.445 376.92,-183.445 374.942,-188.037 372.786,-181.665 372.965,-192.63 372.965,-192.63"/>
</g>
<!-- Player&#45;&gt;PlayerCharacteristic -->
<g id="edge12" class="edge"><title>Player&#45;&gt;PlayerCharacteristic</title>
<path fill="none" stroke="#22cebd" d="M172.115,-147.692C156.114,-137.761 135.881,-125.202 118.84,-114.625"/>
<ellipse fill="none" stroke="#22cebd" cx="175.863" cy="-150.018" rx="4.00002" ry="4.00002"/>
<polygon fill="#22cebd" stroke="#22cebd" points="118.755,-114.572 112.632,-105.475 114.507,-111.935 110.259,-109.299 110.259,-109.299 110.259,-109.299 114.507,-111.935 107.886,-113.122 118.755,-114.572 118.755,-114.572"/>
</g>
<!-- PlayerSkill -->
<g id="node9" class="node"><title>PlayerSkill</title>
<ellipse fill="none" stroke="black" cx="281" cy="-18" rx="49.1158" ry="18"/>
<text text-anchor="middle" x="281" y="-13.8" font-family="Times,serif" font-size="14.00">PlayerSkill</text>
</g>
<!-- Player&#45;&gt;PlayerSkill -->
<g id="edge13" class="edge"><title>Player&#45;&gt;PlayerSkill</title>
<path fill="none" stroke="#0d5ff4" d="M213.034,-141.506C227.666,-115.134 251.34,-72.4604 266.533,-45.0764"/>
<ellipse fill="none" stroke="#0d5ff4" cx="211.075" cy="-145.038" rx="4.00002" ry="4.00002"/>
<polygon fill="#0d5ff4" stroke="#0d5ff4" points="266.673,-44.8241 275.459,-38.2629 269.099,-40.4519 271.524,-36.0797 271.524,-36.0797 271.524,-36.0797 269.099,-40.4519 267.589,-33.8966 266.673,-44.8241 266.673,-44.8241"/>
</g>
<!-- Skill -->
<g id="node10" class="node"><title>Skill</title>
<ellipse fill="none" stroke="black" cx="368" cy="-92" rx="27" ry="18"/>
<text text-anchor="middle" x="368" y="-87.8" font-family="Times,serif" font-size="14.00">Skill</text>
</g>
<!-- Player&#45;&gt;Skill -->
<g id="edge14" class="edge"><title>Player&#45;&gt;Skill</title>
<path fill="none" stroke="#a52f28" d="M234.149,-150.365C264.112,-137.523 307.336,-118.999 336.487,-106.506"/>
<polygon fill="#a52f28" stroke="#a52f28" points="233.98,-150.437 223.016,-150.24 229.385,-152.407 224.789,-154.376 224.789,-154.376 224.789,-154.376 229.385,-152.407 226.562,-158.512 233.98,-150.437 233.98,-150.437"/>
<polygon fill="#a52f28" stroke="#a52f28" points="336.602,-106.456 347.567,-106.653 341.198,-104.487 345.794,-102.517 345.794,-102.517 345.794,-102.517 341.198,-104.487 344.021,-98.3808 336.602,-106.456 336.602,-106.456"/>
</g>
<!-- Skill&#45;&gt;PlayerSkill -->
<g id="edge20" class="edge"><title>Skill&#45;&gt;PlayerSkill</title>
<path fill="none" stroke="#4cb451" d="M345.459,-72.3456C334.002,-62.864 319.996,-51.2729 307.971,-41.3205"/>
<ellipse fill="none" stroke="#4cb451" cx="348.554" cy="-74.9071" rx="4.00002" ry="4.00002"/>
<polygon fill="#4cb451" stroke="#4cb451" points="307.721,-41.1138 302.886,-31.2713 303.869,-37.926 300.017,-34.7381 300.017,-34.7381 300.017,-34.7381 303.869,-37.926 297.148,-38.2049 307.721,-41.1138 307.721,-41.1138"/>
</g>
<!-- Skill&#45;&gt;Skill -->
<g id="edge21" class="edge"><title>Skill&#45;&gt;Skill</title>
<path fill="none" stroke="#f4627e" d="M403.488,-98.2124C409.136,-97.3008 413,-95.23 413,-92 413,-88.77 409.136,-86.6992 403.488,-85.7876"/>
<polygon fill="#f4627e" stroke="#f4627e" points="403.432,-98.2149 393.229,-94.1958 398.438,-98.4528 393.443,-98.6907 393.443,-98.6907 393.443,-98.6907 398.438,-98.4528 393.658,-103.186 403.432,-98.2149 403.432,-98.2149"/>
<polygon fill="#f4627e" stroke="#f4627e" points="403.432,-85.7851 393.658,-80.8144 398.438,-85.5472 393.443,-85.3093 393.443,-85.3093 393.443,-85.3093 398.438,-85.5472 393.229,-89.8042 403.432,-85.7851 403.432,-85.7851"/>
<text text-anchor="middle" x="436.321" y="-87.8" font-family="Times,serif" font-size="14.00">required</text>
</g>
<!-- SkillInteraction -->
<g id="node11" class="node"><title>SkillInteraction</title>
<ellipse fill="none" stroke="black" cx="628" cy="-18" rx="65.1792" ry="18"/>
<text text-anchor="middle" x="628" y="-13.8" font-family="Times,serif" font-size="14.00">SkillInteraction</text>
</g>
<!-- Skill&#45;&gt;SkillInteraction -->
<g id="edge18" class="edge"><title>Skill&#45;&gt;SkillInteraction</title>
<path fill="none" stroke="#f8dc6d" d="M400.343,-82.0434C443.728,-70.0293 521.364,-48.5298 573.768,-34.0181"/>
<ellipse fill="none" stroke="#f8dc6d" cx="396.315" cy="-83.1589" rx="4.00001" ry="4.00001"/>
<polygon fill="#f8dc6d" stroke="#f8dc6d" points="573.933,-33.9726 584.771,-35.6405 578.751,-32.6382 583.57,-31.3037 583.57,-31.3037 583.57,-31.3037 578.751,-32.6382 582.369,-26.9669 573.933,-33.9726 573.933,-33.9726"/>
</g>
<!-- Skill&#45;&gt;Interaction -->
<g id="edge19" class="edge"><title>Skill&#45;&gt;Interaction</title>
<path fill="none" stroke="#2d9aa9" d="M390.083,-69.5135C398.991,-60.8468 409.284,-50.8321 418.344,-42.0167"/>
<polygon fill="#2d9aa9" stroke="#2d9aa9" points="389.787,-69.8015 379.482,-73.5498 386.204,-73.2883 382.62,-76.7751 382.62,-76.7751 382.62,-76.7751 386.204,-73.2883 385.758,-80.0004 389.787,-69.8015 389.787,-69.8015"/>
<polygon fill="#2d9aa9" stroke="#2d9aa9" points="418.44,-41.9234 428.745,-38.1751 422.023,-38.4366 425.607,-34.9498 425.607,-34.9498 425.607,-34.9498 422.023,-38.4366 422.469,-31.7245 418.44,-41.9234 418.44,-41.9234"/>
</g>
<!-- User -->
<g id="node12" class="node"><title>User</title>
<ellipse fill="none" stroke="black" cx="188" cy="-240" rx="27" ry="18"/>
<text text-anchor="middle" x="188" y="-235.8" font-family="Times,serif" font-size="14.00">User</text>
</g>
<!-- User&#45;&gt;Player -->
<g id="edge24" class="edge"><title>User&#45;&gt;Player</title>
<path fill="none" stroke="#cba43e" d="M192.172,-213.965C193.361,-206.832 194.656,-199.064 195.844,-191.937"/>
<ellipse fill="none" stroke="#cba43e" cx="191.501" cy="-217.991" rx="4.00001" ry="4.00001"/>
<ellipse fill="#cba43e" stroke="#cba43e" cx="196.519" cy="-187.886" rx="4.00001" ry="4.00001"/>
</g>
<!-- ActiveRecord::Base -->
<g id="node13" class="node"><title>ActiveRecord::Base</title>
<ellipse fill="none" stroke="black" cx="306" cy="-333" rx="80.9821" ry="18"/>
<text text-anchor="middle" x="306" y="-328.8" font-family="Times,serif" font-size="14.00">ActiveRecord::Base</text>
</g>
<!-- ActiveRecord::Base&#45;&gt;Characteristic -->
<g id="edge3" class="edge"><title>ActiveRecord::Base&#45;&gt;Characteristic</title>
<path fill="none" stroke="black" d="M269.092,-316.871C226.925,-299.587 158.506,-271.541 117.72,-254.822"/>
</g>
<!-- ActiveRecord::Base&#45;&gt;Entity -->
<g id="edge6" class="edge"><title>ActiveRecord::Base&#45;&gt;Entity</title>
<path fill="none" stroke="black" d="M354.92,-318.56C389.47,-308.583 436.619,-293.984 477,-278 495.755,-270.576 516.314,-260.598 531.467,-252.874"/>
</g>
<!-- ActiveRecord::Base&#45;&gt;Item -->
<g id="edge9" class="edge"><title>ActiveRecord::Base&#45;&gt;Item</title>
<path fill="none" stroke="black" d="M340.763,-316.468C363.601,-304.192 391.639,-284.667 405,-258 417.274,-233.501 404.191,-201.69 393.88,-182.898"/>
</g>
<!-- ActiveRecord::Base&#45;&gt;ItemType -->
<g id="edge11" class="edge"><title>ActiveRecord::Base&#45;&gt;ItemType</title>
<path fill="none" stroke="black" d="M314.84,-314.884C323.296,-298.511 335.969,-273.975 344.358,-257.732"/>
</g>
<!-- ActiveRecord::Base&#45;&gt;Player -->
<g id="edge15" class="edge"><title>ActiveRecord::Base&#45;&gt;Player</title>
<path fill="none" stroke="black" d="M292.984,-314.746C285.22,-304.269 275.293,-290.54 267,-278 245.272,-245.143 221.941,-205.338 209.352,-183.437"/>
</g>
<!-- ActiveRecord::Base&#45;&gt;PlayerCharacteristic -->
<g id="edge16" class="edge"><title>ActiveRecord::Base&#45;&gt;PlayerCharacteristic</title>
<path fill="none" stroke="black" d="M271.533,-316.59C254.738,-309.541 234.089,-301.545 215,-296 128.532,-270.883 73.3887,-327.384 16,-258 -22.112,-211.922 35.8912,-141.539 66.7478,-109.688"/>
</g>
<!-- ActiveRecord::Base&#45;&gt;PlayerSkill -->
<g id="edge17" class="edge"><title>ActiveRecord::Base&#45;&gt;PlayerSkill</title>
<path fill="none" stroke="black" d="M298.363,-314.938C291.011,-296.933 281,-267.542 281,-241 281,-241 281,-241 281,-91 281,-72.25 281,-50.7534 281,-36.1662"/>
</g>
<!-- ActiveRecord::Base&#45;&gt;Skill -->
<g id="edge22" class="edge"><title>ActiveRecord::Base&#45;&gt;Skill</title>
<path fill="none" stroke="black" d="M352.605,-318.163C379.903,-307.041 410.94,-288.181 421,-258 425.936,-243.193 428.597,-169.188 420,-148 412.985,-130.709 397.753,-115.678 385.578,-105.72"/>
</g>
<!-- ActiveRecord::Base&#45;&gt;SkillInteraction -->
<g id="edge23" class="edge"><title>ActiveRecord::Base&#45;&gt;SkillInteraction</title>
<path fill="none" stroke="black" d="M385.032,-328.78C495.58,-322.082 683,-301.766 683,-241 683,-241 683,-241 683,-91 683,-68.1918 665.355,-48.1223 650.054,-35.0062"/>
</g>
<!-- ActiveRecord::Base&#45;&gt;User -->
<g id="edge25" class="edge"><title>ActiveRecord::Base&#45;&gt;User</title>
<path fill="none" stroke="black" d="M281.167,-315.72C265.8,-305.37 245.855,-291.432 229,-278 220.002,-270.829 210.431,-262.251 202.801,-255.161"/>
</g>
</g>
</svg>
