<?xml version="1.0" encoding="UTF-8" standalone="no"?>
<!DOCTYPE svg PUBLIC "-//W3C//DTD SVG 1.1//EN"
 "http://www.w3.org/Graphics/SVG/1.1/DTD/svg11.dtd">
<!-- Generated by graphviz version 2.36.0 (20140111.2315)
 -->
<!-- Title: models_diagram Pages: 1 -->
<svg width="871pt" height="378pt"
 viewBox="0.00 0.00 871.00 378.00" xmlns="http://www.w3.org/2000/svg" xmlns:xlink="http://www.w3.org/1999/xlink">
<g id="graph0" class="graph" transform="scale(1 1) rotate(0) translate(4 374)">
<title>models_diagram</title>
<polygon fill="white" stroke="none" points="-4,4 -4,-374 867,-374 867,4 -4,4"/>
<!-- _diagram_info -->
<g id="node1" class="node"><title>_diagram_info</title>
<text text-anchor="start" x="242.312" y="-355.1" font-family="Times,serif" font-size="13.00">Models diagram</text>
<text text-anchor="start" x="242.312" y="-342.1" font-family="Times,serif" font-size="13.00">Date: Feb 20 2014 &#45; 03:51</text>
<text text-anchor="start" x="242.312" y="-329.1" font-family="Times,serif" font-size="13.00">Migration version: 20140202161047</text>
<text text-anchor="start" x="242.312" y="-316.1" font-family="Times,serif" font-size="13.00">Generated by RailRoady 1.1.1</text>
<text text-anchor="start" x="242.312" y="-303.1" font-family="Times,serif" font-size="13.00">http://railroady.prestonlee.com</text>
</g>
<!-- Characteristic -->
<g id="node2" class="node"><title>Characteristic</title>
<ellipse fill="none" stroke="black" cx="700" cy="-240" rx="59.3187" ry="18"/>
<text text-anchor="middle" x="700" y="-235.8" font-family="Times,serif" font-size="14.00">Characteristic</text>
</g>
<!-- Player -->
<g id="node8" class="node"><title>Player</title>
<ellipse fill="none" stroke="black" cx="662" cy="-166" rx="32.5477" ry="18"/>
<text text-anchor="middle" x="662" y="-161.8" font-family="Times,serif" font-size="14.00">Player</text>
</g>
<!-- Characteristic&#45;&gt;Player -->
<g id="edge2" class="edge"><title>Characteristic&#45;&gt;Player</title>
<path fill="none" stroke="#cdbc52" d="M686.243,-212.934C682.752,-206.319 679.004,-199.218 675.525,-192.625"/>
<polygon fill="#cdbc52" stroke="#cdbc52" points="686.327,-213.093 687.015,-224.037 688.661,-217.515 690.995,-221.937 690.995,-221.937 690.995,-221.937 688.661,-217.515 694.974,-219.837 686.327,-213.093 686.327,-213.093"/>
<polygon fill="#cdbc52" stroke="#cdbc52" points="675.347,-192.289 674.659,-181.344 673.013,-187.867 670.679,-183.445 670.679,-183.445 670.679,-183.445 673.013,-187.867 666.7,-185.545 675.347,-192.289 675.347,-192.289"/>
</g>
<!-- PlayerCharacteristic -->
<g id="node9" class="node"><title>PlayerCharacteristic</title>
<ellipse fill="none" stroke="black" cx="753" cy="-92" rx="81.2082" ry="18"/>
<text text-anchor="middle" x="753" y="-87.8" font-family="Times,serif" font-size="14.00">PlayerCharacteristic</text>
</g>
<!-- Characteristic&#45;&gt;PlayerCharacteristic -->
<g id="edge1" class="edge"><title>Characteristic&#45;&gt;PlayerCharacteristic</title>
<path fill="none" stroke="#4ee73b" d="M709.01,-214.179C718.511,-188.006 733.432,-146.905 743.215,-119.954"/>
<ellipse fill="none" stroke="#4ee73b" cx="707.548" cy="-218.206" rx="4.00001" ry="4.00001"/>
<polygon fill="#4ee73b" stroke="#4ee73b" points="743.279,-119.778 750.922,-111.913 744.985,-115.078 746.692,-110.378 746.692,-110.378 746.692,-110.378 744.985,-115.078 742.462,-108.842 743.279,-119.778 743.279,-119.778"/>
</g>
<!-- Entity -->
<g id="node3" class="node"><title>Entity</title>
<ellipse fill="none" stroke="black" cx="31" cy="-92" rx="31.5839" ry="18"/>
<text text-anchor="middle" x="31" y="-87.8" font-family="Times,serif" font-size="14.00">Entity</text>
</g>
<!-- EntityType -->
<g id="node4" class="node"><title>EntityType</title>
<ellipse fill="none" stroke="black" cx="168" cy="-166" rx="48.9161" ry="18"/>
<text text-anchor="middle" x="168" y="-161.8" font-family="Times,serif" font-size="14.00">EntityType</text>
</g>
<!-- EntityType&#45;&gt;Entity -->
<g id="edge5" class="edge"><title>EntityType&#45;&gt;Entity</title>
<path fill="none" stroke="#1f1298" d="M133.759,-147.005C111.89,-135.512 83.7473,-120.721 62.4444,-109.526"/>
<ellipse fill="none" stroke="#1f1298" cx="137.392" cy="-148.914" rx="4.00002" ry="4.00002"/>
<polygon fill="#1f1298" stroke="#1f1298" points="62.3309,-109.466 55.5724,-100.83 57.9049,-107.14 53.4789,-104.814 53.4789,-104.814 53.4789,-104.814 57.9049,-107.14 51.3854,-108.797 62.3309,-109.466 62.3309,-109.466"/>
</g>
<!-- EntityTypeInteraction -->
<g id="node15" class="node"><title>EntityTypeInteraction</title>
<ellipse fill="none" stroke="black" cx="168" cy="-92" rx="87.3666" ry="18"/>
<text text-anchor="middle" x="168" y="-87.8" font-family="Times,serif" font-size="14.00">EntityTypeInteraction</text>
</g>
<!-- EntityType&#45;&gt;EntityTypeInteraction -->
<g id="edge6" class="edge"><title>EntityType&#45;&gt;EntityTypeInteraction</title>
<path fill="none" stroke="#5bf788" d="M168,-139.792C168,-133.58 168,-126.896 168,-120.579"/>
<ellipse fill="none" stroke="#5bf788" cx="168" cy="-143.937" rx="4" ry="4"/>
<polygon fill="#5bf788" stroke="#5bf788" points="168,-120.441 172.5,-110.441 168,-115.441 168,-110.441 168,-110.441 168,-110.441 168,-115.441 163.5,-110.441 168,-120.441 168,-120.441"/>
</g>
<!-- Interaction -->
<g id="node5" class="node"><title>Interaction</title>
<ellipse fill="none" stroke="black" cx="283" cy="-240" rx="48.1131" ry="18"/>
<text text-anchor="middle" x="283" y="-235.8" font-family="Times,serif" font-size="14.00">Interaction</text>
</g>
<!-- Interaction&#45;&gt;EntityType -->
<g id="edge8" class="edge"><title>Interaction&#45;&gt;EntityType</title>
<path fill="none" stroke="#6e97d0" d="M250.942,-218.929C235.301,-209.136 216.514,-197.374 200.779,-187.522"/>
<polygon fill="#6e97d0" stroke="#6e97d0" points="250.975,-218.949 257.063,-228.07 255.213,-221.603 259.451,-224.256 259.451,-224.256 259.451,-224.256 255.213,-221.603 261.839,-220.442 250.975,-218.949 250.975,-218.949"/>
<polygon fill="#6e97d0" stroke="#6e97d0" points="200.389,-187.278 194.301,-178.158 196.151,-184.625 191.913,-181.972 191.913,-181.972 191.913,-181.972 196.151,-184.625 189.525,-185.786 200.389,-187.278 200.389,-187.278"/>
</g>
<!-- Skill -->
<g id="node11" class="node"><title>Skill</title>
<ellipse fill="none" stroke="black" cx="524" cy="-92" rx="27" ry="18"/>
<text text-anchor="middle" x="524" y="-87.8" font-family="Times,serif" font-size="14.00">Skill</text>
</g>
<!-- Interaction&#45;&gt;Skill -->
<g id="edge10" class="edge"><title>Interaction&#45;&gt;Skill</title>
<path fill="none" stroke="#cefe85" d="M306.896,-215.961C328.398,-196.106 361.517,-167.625 394,-148 424.875,-129.347 463.223,-113.961 490.243,-104.252"/>
<polygon fill="#cefe85" stroke="#cefe85" points="306.828,-216.024 296.45,-219.566 303.175,-219.439 299.523,-222.853 299.523,-222.853 299.523,-222.853 303.175,-219.439 302.596,-226.14 306.828,-216.024 306.828,-216.024"/>
<polygon fill="#cefe85" stroke="#cefe85" points="490.573,-104.136 501.5,-105.058 495.289,-102.475 500.005,-100.814 500.005,-100.814 500.005,-100.814 495.289,-102.475 498.511,-96.5692 490.573,-104.136 490.573,-104.136"/>
</g>
<!-- SkillInteraction -->
<g id="node12" class="node"><title>SkillInteraction</title>
<ellipse fill="none" stroke="black" cx="359" cy="-18" rx="65.1792" ry="18"/>
<text text-anchor="middle" x="359" y="-13.8" font-family="Times,serif" font-size="14.00">SkillInteraction</text>
</g>
<!-- Interaction&#45;&gt;SkillInteraction -->
<g id="edge9" class="edge"><title>Interaction&#45;&gt;SkillInteraction</title>
<path fill="none" stroke="#68cb64" d="M290.842,-214.112C302.194,-178.442 324.136,-110.814 345,-54 346.015,-51.2355 347.106,-48.3614 348.215,-45.5017"/>
<ellipse fill="none" stroke="#68cb64" cx="289.532" cy="-218.24" rx="4.00001" ry="4.00001"/>
<polygon fill="#68cb64" stroke="#68cb64" points="348.289,-45.3134 356.152,-37.6699 350.128,-40.664 351.968,-36.0145 351.968,-36.0145 351.968,-36.0145 350.128,-40.664 347.783,-34.3592 348.289,-45.3134 348.289,-45.3134"/>
</g>
<!-- Interaction&#45;&gt;EntityTypeInteraction -->
<g id="edge7" class="edge"><title>Interaction&#45;&gt;EntityTypeInteraction</title>
<path fill="none" stroke="#31d451" d="M270.139,-214.915C259.472,-195.9 243.3,-169.143 226,-148 216.896,-136.874 205.663,-125.746 195.514,-116.44"/>
<ellipse fill="none" stroke="#31d451" cx="272.148" cy="-218.547" rx="4.00002" ry="4.00002"/>
<polygon fill="#31d451" stroke="#31d451" points="195.458,-116.39 191.025,-106.361 191.738,-113.049 188.018,-109.709 188.018,-109.709 188.018,-109.709 191.738,-113.049 185.011,-113.057 195.458,-116.39 195.458,-116.39"/>
</g>
<!-- Item -->
<g id="node6" class="node"><title>Item</title>
<ellipse fill="none" stroke="black" cx="430" cy="-166" rx="27" ry="18"/>
<text text-anchor="middle" x="430" y="-161.8" font-family="Times,serif" font-size="14.00">Item</text>
</g>
<!-- ItemType -->
<g id="node7" class="node"><title>ItemType</title>
<ellipse fill="none" stroke="black" cx="469" cy="-240" rx="43.3003" ry="18"/>
<text text-anchor="middle" x="469" y="-235.8" font-family="Times,serif" font-size="14.00">ItemType</text>
</g>
<!-- ItemType&#45;&gt;Item -->
<g id="edge13" class="edge"><title>ItemType&#45;&gt;Item</title>
<path fill="none" stroke="#323791" d="M455.999,-214.998C452.007,-207.627 447.604,-199.499 443.574,-192.06"/>
<ellipse fill="none" stroke="#323791" cx="458.049" cy="-218.784" rx="4.00002" ry="4.00002"/>
<polygon fill="#323791" stroke="#323791" points="443.491,-191.906 442.685,-180.97 441.11,-187.51 438.728,-183.113 438.728,-183.113 438.728,-183.113 441.11,-187.51 434.771,-185.257 443.491,-191.906 443.491,-191.906"/>
</g>
<!-- Player&#45;&gt;PlayerCharacteristic -->
<g id="edge15" class="edge"><title>Player&#45;&gt;PlayerCharacteristic</title>
<path fill="none" stroke="#a938c7" d="M686.275,-145.794C697.908,-136.589 711.927,-125.497 724.106,-115.861"/>
<ellipse fill="none" stroke="#a938c7" cx="683.116" cy="-148.293" rx="4.00002" ry="4.00002"/>
<polygon fill="#a938c7" stroke="#a938c7" points="724.35,-115.668 734.984,-112.992 728.271,-112.566 732.192,-109.463 732.192,-109.463 732.192,-109.463 728.271,-112.566 729.4,-105.934 724.35,-115.668 724.35,-115.668"/>
</g>
<!-- PlayerSkill -->
<g id="node10" class="node"><title>PlayerSkill</title>
<ellipse fill="none" stroke="black" cx="643" cy="-18" rx="49.1158" ry="18"/>
<text text-anchor="middle" x="643" y="-13.8" font-family="Times,serif" font-size="14.00">PlayerSkill</text>
</g>
<!-- Player&#45;&gt;PlayerSkill -->
<g id="edge16" class="edge"><title>Player&#45;&gt;PlayerSkill</title>
<path fill="none" stroke="#21b955" d="M658.721,-139.8C655.341,-113.827 650.086,-73.4489 646.595,-46.6216"/>
<ellipse fill="none" stroke="#21b955" cx="659.267" cy="-144" rx="4.00001" ry="4.00001"/>
<polygon fill="#21b955" stroke="#21b955" points="646.552,-46.2942 649.724,-35.7971 645.907,-41.336 645.262,-36.3779 645.262,-36.3779 645.262,-36.3779 645.907,-41.336 640.799,-36.9586 646.552,-46.2942 646.552,-46.2942"/>
</g>
<!-- Player&#45;&gt;Skill -->
<g id="edge17" class="edge"><title>Player&#45;&gt;Skill</title>
<path fill="none" stroke="#3ddd5d" d="M630.019,-148.314C606.982,-136.295 576.124,-120.195 553.642,-108.465"/>
<polygon fill="#3ddd5d" stroke="#3ddd5d" points="630.346,-148.485 637.131,-157.1 634.779,-150.798 639.212,-153.111 639.212,-153.111 639.212,-153.111 634.779,-150.798 641.294,-149.121 630.346,-148.485 630.346,-148.485"/>
<polygon fill="#3ddd5d" stroke="#3ddd5d" points="553.433,-108.356 546.648,-99.7409 549,-106.043 544.567,-103.731 544.567,-103.731 544.567,-103.731 549,-106.043 542.485,-107.72 553.433,-108.356 553.433,-108.356"/>
</g>
<!-- Skill&#45;&gt;PlayerSkill -->
<g id="edge22" class="edge"><title>Skill&#45;&gt;PlayerSkill</title>
<path fill="none" stroke="#b5428e" d="M550.259,-75.1125C567.882,-64.4495 591.235,-50.32 610.097,-38.9074"/>
<ellipse fill="none" stroke="#b5428e" cx="546.807" cy="-77.201" rx="4.00002" ry="4.00002"/>
<polygon fill="#b5428e" stroke="#b5428e" points="610.125,-38.8908 621.01,-37.5642 614.403,-36.3025 618.681,-33.7141 618.681,-33.7141 618.681,-33.7141 614.403,-36.3025 616.351,-29.864 610.125,-38.8908 610.125,-38.8908"/>
</g>
<!-- Skill&#45;&gt;Skill -->
<g id="edge23" class="edge"><title>Skill&#45;&gt;Skill</title>
<path fill="none" stroke="#e5514b" d="M559.488,-98.2124C565.136,-97.3008 569,-95.23 569,-92 569,-88.77 565.136,-86.6992 559.488,-85.7876"/>
<polygon fill="#e5514b" stroke="#e5514b" points="559.432,-98.2149 549.229,-94.1958 554.438,-98.4528 549.443,-98.6907 549.443,-98.6907 549.443,-98.6907 554.438,-98.4528 549.658,-103.186 559.432,-98.2149 559.432,-98.2149"/>
<polygon fill="#e5514b" stroke="#e5514b" points="559.432,-85.7851 549.658,-80.8144 554.438,-85.5472 549.443,-85.3093 549.443,-85.3093 549.443,-85.3093 554.438,-85.5472 549.229,-89.8042 559.432,-85.7851 559.432,-85.7851"/>
<text text-anchor="middle" x="592.321" y="-87.8" font-family="Times,serif" font-size="14.00">required</text>
</g>
<!-- Skill&#45;&gt;SkillInteraction -->
<g id="edge21" class="edge"><title>Skill&#45;&gt;SkillInteraction</title>
<path fill="none" stroke="#e83aba" d="M494.419,-78.092C468.666,-66.8544 431.01,-50.4226 401.94,-37.7374"/>
<ellipse fill="none" stroke="#e83aba" cx="498.423" cy="-79.8391" rx="4.00002" ry="4.00002"/>
<polygon fill="#e83aba" stroke="#e83aba" points="401.605,-37.5915 394.24,-29.4675 397.023,-35.5917 392.44,-33.592 392.44,-33.592 392.44,-33.592 397.023,-35.5917 390.64,-37.7164 401.605,-37.5915 401.605,-37.5915"/>
</g>
<!-- User -->
<g id="node13" class="node"><title>User</title>
<ellipse fill="none" stroke="black" cx="596" cy="-240" rx="27" ry="18"/>
<text text-anchor="middle" x="596" y="-235.8" font-family="Times,serif" font-size="14.00">User</text>
</g>
<!-- User&#45;&gt;Player -->
<g id="edge26" class="edge"><title>User&#45;&gt;Player</title>
<path fill="none" stroke="#d8db4f" d="M615.214,-218.039C623.785,-208.689 633.868,-197.689 642.475,-188.3"/>
<ellipse fill="none" stroke="#d8db4f" cx="612.378" cy="-221.133" rx="4.00002" ry="4.00002"/>
<ellipse fill="#d8db4f" stroke="#d8db4f" cx="645.184" cy="-185.345" rx="4.00002" ry="4.00002"/>
</g>
<!-- ActiveRecord::Base -->
<g id="node14" class="node"><title>ActiveRecord::Base</title>
<ellipse fill="none" stroke="black" cx="541" cy="-333" rx="80.9821" ry="18"/>
<text text-anchor="middle" x="541" y="-328.8" font-family="Times,serif" font-size="14.00">ActiveRecord::Base</text>
</g>
<!-- ActiveRecord::Base&#45;&gt;Characteristic -->
<g id="edge3" class="edge"><title>ActiveRecord::Base&#45;&gt;Characteristic</title>
<path fill="none" stroke="black" d="M569.06,-315.941C598.569,-299.052 644.649,-272.679 673.541,-256.143"/>
</g>
<!-- ActiveRecord::Base&#45;&gt;Entity -->
<g id="edge4" class="edge"><title>ActiveRecord::Base&#45;&gt;Entity</title>
<path fill="none" stroke="black" d="M507.032,-316.523C490.177,-309.373 469.332,-301.309 450,-296 352.628,-269.258 320.061,-294.729 226,-258 169.036,-235.757 156.302,-223.947 110,-184 83.0709,-160.767 57.0697,-128.261 42.6392,-109.043"/>
</g>
<!-- ActiveRecord::Base&#45;&gt;Interaction -->
<g id="edge11" class="edge"><title>ActiveRecord::Base&#45;&gt;Interaction</title>
<path fill="none" stroke="black" d="M507.008,-316.611C490.147,-309.481 469.304,-301.41 450,-296 404.409,-283.223 389.413,-294.409 345,-278 330.538,-272.657 315.66,-263.906 304.105,-256.257"/>
</g>
<!-- ActiveRecord::Base&#45;&gt;Item -->
<g id="edge12" class="edge"><title>ActiveRecord::Base&#45;&gt;Item</title>
<path fill="none" stroke="black" d="M495.236,-317.98C466.952,-306.679 432.924,-287.687 416,-258 402.621,-234.532 413.008,-202.391 421.613,-183.255"/>
</g>
<!-- ActiveRecord::Base&#45;&gt;ItemType -->
<g id="edge14" class="edge"><title>ActiveRecord::Base&#45;&gt;ItemType</title>
<path fill="none" stroke="black" d="M527.457,-314.884C514.422,-298.408 494.846,-273.666 481.997,-257.427"/>
</g>
<!-- ActiveRecord::Base&#45;&gt;Player -->
<g id="edge18" class="edge"><title>ActiveRecord::Base&#45;&gt;Player</title>
<path fill="none" stroke="black" d="M620.088,-328.798C671.291,-322.116 734.461,-304.21 768,-258 777.398,-245.051 776.31,-235.673 768,-222 751.526,-194.893 716.881,-180.541 691.67,-173.381"/>
</g>
<!-- ActiveRecord::Base&#45;&gt;PlayerCharacteristic -->
<g id="edge19" class="edge"><title>ActiveRecord::Base&#45;&gt;PlayerCharacteristic</title>
<path fill="none" stroke="black" d="M608.742,-322.994C676.049,-312.217 771.194,-291.331 785,-258 806.216,-206.779 778.313,-140.7 762.515,-110.033"/>
</g>
<!-- ActiveRecord::Base&#45;&gt;PlayerSkill -->
<g id="edge20" class="edge"><title>ActiveRecord::Base&#45;&gt;PlayerSkill</title>
<path fill="none" stroke="black" d="M615.683,-325.871C710.805,-315.962 863,-292.121 863,-241 863,-241 863,-241 863,-91 863,-54.6802 753.327,-33.755 688.851,-24.5914"/>
</g>
<!-- ActiveRecord::Base&#45;&gt;Skill -->
<g id="edge24" class="edge"><title>ActiveRecord::Base&#45;&gt;Skill</title>
<path fill="none" stroke="black" d="M539.777,-314.812C536.641,-270.714 528.336,-153.958 525.212,-110.033"/>
</g>
<!-- ActiveRecord::Base&#45;&gt;SkillInteraction -->
<g id="edge25" class="edge"><title>ActiveRecord::Base&#45;&gt;SkillInteraction</title>
<path fill="none" stroke="black" d="M502.847,-317.083C449.479,-295.642 359,-256.941 359,-241 359,-241 359,-241 359,-91 359,-72.25 359,-50.7534 359,-36.1662"/>
</g>
<!-- ActiveRecord::Base&#45;&gt;User -->
<g id="edge27" class="edge"><title>ActiveRecord::Base&#45;&gt;User</title>
<path fill="none" stroke="black" d="M551.345,-314.884C561.365,-298.305 576.444,-273.357 586.255,-257.123"/>
</g>
</g>
</svg>
