<?xml version="1.0" encoding="UTF-8" standalone="no"?>
<!DOCTYPE svg PUBLIC "-//W3C//DTD SVG 1.1//EN"
 "http://www.w3.org/Graphics/SVG/1.1/DTD/svg11.dtd">
<!-- Generated by graphviz version 2.36.0 (20140111.2315)
 -->
<!-- Title: models_diagram Pages: 1 -->
<svg width="943pt" height="726pt"
 viewBox="0.00 0.00 942.63 726.00" xmlns="http://www.w3.org/2000/svg" xmlns:xlink="http://www.w3.org/1999/xlink">
<g id="graph0" class="graph" transform="scale(1 1) rotate(0) translate(4 722)">
<title>models_diagram</title>
<polygon fill="white" stroke="none" points="-4,4 -4,-722 938.627,-722 938.627,4 -4,4"/>
<!-- _diagram_info -->
<g id="node1" class="node"><title>_diagram_info</title>
<text text-anchor="start" x="222.181" y="-703.1" font-family="Times,serif" font-size="13.00">Models diagram</text>
<text text-anchor="start" x="222.181" y="-690.1" font-family="Times,serif" font-size="13.00">Date: Feb 18 2014 &#45; 23:43</text>
<text text-anchor="start" x="222.181" y="-677.1" font-family="Times,serif" font-size="13.00">Migration version: 20140202161047</text>
<text text-anchor="start" x="222.181" y="-664.1" font-family="Times,serif" font-size="13.00">Generated by RailRoady 1.1.1</text>
<text text-anchor="start" x="222.181" y="-651.1" font-family="Times,serif" font-size="13.00">http://railroady.prestonlee.com</text>
</g>
<!-- Characteristic -->
<g id="node2" class="node"><title>Characteristic</title>
<path fill="none" stroke="black" d="M580.363,-484C580.363,-484 689.374,-484 689.374,-484 695.374,-484 701.374,-490 701.374,-496 701.374,-496 701.374,-586 701.374,-586 701.374,-592 695.374,-598 689.374,-598 689.374,-598 580.363,-598 580.363,-598 574.363,-598 568.363,-592 568.363,-586 568.363,-586 568.363,-496 568.363,-496 568.363,-490 574.363,-484 580.363,-484"/>
<text text-anchor="middle" x="634.868" y="-582.8" font-family="Times,serif" font-size="14.00">Characteristic</text>
<polyline fill="none" stroke="black" points="568.363,-576 701.374,-576 "/>
<text text-anchor="start" x="576.363" y="-560.8" font-family="Times,serif" font-size="14.00">id :integer</text>
<text text-anchor="start" x="576.363" y="-546.8" font-family="Times,serif" font-size="14.00">title :string</text>
<text text-anchor="start" x="576.363" y="-532.8" font-family="Times,serif" font-size="14.00">description :text</text>
<text text-anchor="start" x="576.363" y="-518.8" font-family="Times,serif" font-size="14.00">attrs :hstore</text>
<text text-anchor="start" x="576.363" y="-504.8" font-family="Times,serif" font-size="14.00">created_at :datetime</text>
<text text-anchor="start" x="576.363" y="-490.8" font-family="Times,serif" font-size="14.00">updated_at :datetime</text>
</g>
<!-- Player -->
<g id="node8" class="node"><title>Player</title>
<path fill="none" stroke="black" d="M675.363,-316C675.363,-316 784.374,-316 784.374,-316 790.374,-316 796.374,-322 796.374,-328 796.374,-328 796.374,-418 796.374,-418 796.374,-424 790.374,-430 784.374,-430 784.374,-430 675.363,-430 675.363,-430 669.363,-430 663.363,-424 663.363,-418 663.363,-418 663.363,-328 663.363,-328 663.363,-322 669.363,-316 675.363,-316"/>
<text text-anchor="middle" x="729.868" y="-414.8" font-family="Times,serif" font-size="14.00">Player</text>
<polyline fill="none" stroke="black" points="663.363,-408 796.374,-408 "/>
<text text-anchor="start" x="671.363" y="-392.8" font-family="Times,serif" font-size="14.00">id :integer</text>
<text text-anchor="start" x="671.363" y="-378.8" font-family="Times,serif" font-size="14.00">user_id :integer</text>
<text text-anchor="start" x="671.363" y="-364.8" font-family="Times,serif" font-size="14.00">latitude :decimal</text>
<text text-anchor="start" x="671.363" y="-350.8" font-family="Times,serif" font-size="14.00">longitude :decimal</text>
<text text-anchor="start" x="671.363" y="-336.8" font-family="Times,serif" font-size="14.00">created_at :datetime</text>
<text text-anchor="start" x="671.363" y="-322.8" font-family="Times,serif" font-size="14.00">updated_at :datetime</text>
</g>
<!-- Characteristic&#45;&gt;Player -->
<g id="edge2" class="edge"><title>Characteristic&#45;&gt;Player</title>
<path fill="none" stroke="#9bfaeb" d="M672.216,-474.74C678.94,-462.992 685.947,-450.746 692.667,-439.005"/>
<polygon fill="#9bfaeb" stroke="#9bfaeb" points="671.998,-475.121 663.125,-481.565 669.515,-479.46 667.031,-483.8 667.031,-483.8 667.031,-483.8 669.515,-479.46 670.937,-486.035 671.998,-475.121 671.998,-475.121"/>
<polygon fill="#9bfaeb" stroke="#9bfaeb" points="692.772,-438.821 701.645,-432.377 695.255,-434.482 697.739,-430.142 697.739,-430.142 697.739,-430.142 695.255,-434.482 693.833,-427.907 692.772,-438.821 692.772,-438.821"/>
</g>
<!-- PlayerCharacteristic -->
<g id="node9" class="node"><title>PlayerCharacteristic</title>
<path fill="none" stroke="black" d="M569.487,-155C569.487,-155 700.25,-155 700.25,-155 706.25,-155 712.25,-161 712.25,-167 712.25,-167 712.25,-257 712.25,-257 712.25,-263 706.25,-269 700.25,-269 700.25,-269 569.487,-269 569.487,-269 563.487,-269 557.487,-263 557.487,-257 557.487,-257 557.487,-167 557.487,-167 557.487,-161 563.487,-155 569.487,-155"/>
<text text-anchor="middle" x="634.868" y="-253.8" font-family="Times,serif" font-size="14.00">PlayerCharacteristic</text>
<polyline fill="none" stroke="black" points="557.487,-247 712.25,-247 "/>
<text text-anchor="start" x="565.487" y="-231.8" font-family="Times,serif" font-size="14.00">id :integer</text>
<text text-anchor="start" x="565.487" y="-217.8" font-family="Times,serif" font-size="14.00">player_id :integer</text>
<text text-anchor="start" x="565.487" y="-203.8" font-family="Times,serif" font-size="14.00">characteristic_id :integer</text>
<text text-anchor="start" x="565.487" y="-189.8" font-family="Times,serif" font-size="14.00">value :float</text>
<text text-anchor="start" x="565.487" y="-175.8" font-family="Times,serif" font-size="14.00">created_at :datetime</text>
<text text-anchor="start" x="565.487" y="-161.8" font-family="Times,serif" font-size="14.00">updated_at :datetime</text>
</g>
<!-- Characteristic&#45;&gt;PlayerCharacteristic -->
<g id="edge1" class="edge"><title>Characteristic&#45;&gt;PlayerCharacteristic</title>
<path fill="none" stroke="#b02387" d="M634.868,-475.487C634.868,-418.684 634.868,-336.318 634.868,-279.058"/>
<ellipse fill="none" stroke="#b02387" cx="634.868" cy="-479.787" rx="4" ry="4"/>
<polygon fill="#b02387" stroke="#b02387" points="634.869,-279.026 639.368,-269.026 634.868,-274.026 634.868,-269.026 634.868,-269.026 634.868,-269.026 634.868,-274.026 630.368,-269.026 634.869,-279.026 634.869,-279.026"/>
</g>
<!-- Entity -->
<g id="node3" class="node"><title>Entity</title>
<path fill="none" stroke="black" d="M65.3011,-477C65.3011,-477 184.436,-477 184.436,-477 190.436,-477 196.436,-483 196.436,-489 196.436,-489 196.436,-593 196.436,-593 196.436,-599 190.436,-605 184.436,-605 184.436,-605 65.3011,-605 65.3011,-605 59.3011,-605 53.3011,-599 53.3011,-593 53.3011,-593 53.3011,-489 53.3011,-489 53.3011,-483 59.3011,-477 65.3011,-477"/>
<text text-anchor="middle" x="124.868" y="-589.8" font-family="Times,serif" font-size="14.00">Entity</text>
<polyline fill="none" stroke="black" points="53.3011,-583 196.436,-583 "/>
<text text-anchor="start" x="61.3011" y="-567.8" font-family="Times,serif" font-size="14.00">id :integer</text>
<text text-anchor="start" x="61.3011" y="-553.8" font-family="Times,serif" font-size="14.00">entity_type_id :integer</text>
<text text-anchor="start" x="61.3011" y="-539.8" font-family="Times,serif" font-size="14.00">attrs :hstore</text>
<text text-anchor="start" x="61.3011" y="-525.8" font-family="Times,serif" font-size="14.00">latitude :decimal</text>
<text text-anchor="start" x="61.3011" y="-511.8" font-family="Times,serif" font-size="14.00">longitude :decimal</text>
<text text-anchor="start" x="61.3011" y="-497.8" font-family="Times,serif" font-size="14.00">created_at :datetime</text>
<text text-anchor="start" x="61.3011" y="-483.8" font-family="Times,serif" font-size="14.00">updated_at :datetime</text>
</g>
<!-- Interaction -->
<g id="node5" class="node"><title>Interaction</title>
<path fill="none" stroke="black" d="M198.363,-323C198.363,-323 307.374,-323 307.374,-323 313.374,-323 319.374,-329 319.374,-335 319.374,-335 319.374,-411 319.374,-411 319.374,-417 313.374,-423 307.374,-423 307.374,-423 198.363,-423 198.363,-423 192.363,-423 186.363,-417 186.363,-411 186.363,-411 186.363,-335 186.363,-335 186.363,-329 192.363,-323 198.363,-323"/>
<text text-anchor="middle" x="252.868" y="-407.8" font-family="Times,serif" font-size="14.00">Interaction</text>
<polyline fill="none" stroke="black" points="186.363,-401 319.374,-401 "/>
<text text-anchor="start" x="194.363" y="-385.8" font-family="Times,serif" font-size="14.00">id :integer</text>
<text text-anchor="start" x="194.363" y="-371.8" font-family="Times,serif" font-size="14.00">title :string</text>
<text text-anchor="start" x="194.363" y="-357.8" font-family="Times,serif" font-size="14.00">description :text</text>
<text text-anchor="start" x="194.363" y="-343.8" font-family="Times,serif" font-size="14.00">created_at :datetime</text>
<text text-anchor="start" x="194.363" y="-329.8" font-family="Times,serif" font-size="14.00">updated_at :datetime</text>
</g>
<!-- Entity&#45;&gt;Interaction -->
<g id="edge5" class="edge"><title>Entity&#45;&gt;Interaction</title>
<path fill="none" stroke="#b990d1" d="M179.785,-468.78C189.43,-456.272 199.356,-443.399 208.663,-431.329"/>
<polygon fill="#b990d1" stroke="#b990d1" points="179.731,-468.85 170.061,-474.021 176.678,-472.809 173.625,-476.769 173.625,-476.769 173.625,-476.769 176.678,-472.809 177.189,-479.517 179.731,-468.85 179.731,-468.85"/>
<polygon fill="#b990d1" stroke="#b990d1" points="208.89,-431.035 218.56,-425.864 211.943,-427.076 214.996,-423.116 214.996,-423.116 214.996,-423.116 211.943,-427.076 211.432,-420.368 208.89,-431.035 208.89,-431.035"/>
</g>
<!-- EntityInteraction -->
<g id="node14" class="node"><title>EntityInteraction</title>
<ellipse fill="none" stroke="black" cx="97.8684" cy="-373" rx="70.0371" ry="18"/>
<text text-anchor="middle" x="97.8684" y="-368.8" font-family="Times,serif" font-size="14.00">EntityInteraction</text>
</g>
<!-- Entity&#45;&gt;EntityInteraction -->
<g id="edge4" class="edge"><title>Entity&#45;&gt;EntityInteraction</title>
<path fill="none" stroke="#2b358b" d="M113.281,-468.758C109.389,-444.832 105.281,-419.576 102.286,-401.16"/>
<ellipse fill="none" stroke="#2b358b" cx="113.942" cy="-472.821" rx="4.00001" ry="4.00001"/>
<polygon fill="#2b358b" stroke="#2b358b" points="102.266,-401.039 105.103,-390.446 101.464,-396.104 100.661,-391.169 100.661,-391.169 100.661,-391.169 101.464,-396.104 96.2193,-391.891 102.266,-401.039 102.266,-401.039"/>
</g>
<!-- EntityType -->
<g id="node4" class="node"><title>EntityType</title>
<path fill="none" stroke="black" d="M103.363,-155C103.363,-155 212.374,-155 212.374,-155 218.374,-155 224.374,-161 224.374,-167 224.374,-167 224.374,-257 224.374,-257 224.374,-263 218.374,-269 212.374,-269 212.374,-269 103.363,-269 103.363,-269 97.3631,-269 91.3631,-263 91.3631,-257 91.3631,-257 91.3631,-167 91.3631,-167 91.3631,-161 97.3631,-155 103.363,-155"/>
<text text-anchor="middle" x="157.868" y="-253.8" font-family="Times,serif" font-size="14.00">EntityType</text>
<polyline fill="none" stroke="black" points="91.3631,-247 224.374,-247 "/>
<text text-anchor="start" x="99.3631" y="-231.8" font-family="Times,serif" font-size="14.00">id :integer</text>
<text text-anchor="start" x="99.3631" y="-217.8" font-family="Times,serif" font-size="14.00">name :string</text>
<text text-anchor="start" x="99.3631" y="-203.8" font-family="Times,serif" font-size="14.00">description :text</text>
<text text-anchor="start" x="99.3631" y="-189.8" font-family="Times,serif" font-size="14.00">attrs :hstore</text>
<text text-anchor="start" x="99.3631" y="-175.8" font-family="Times,serif" font-size="14.00">created_at :datetime</text>
<text text-anchor="start" x="99.3631" y="-161.8" font-family="Times,serif" font-size="14.00">updated_at :datetime</text>
</g>
<!-- EntityType&#45;&gt;Entity -->
<g id="edge7" class="edge"><title>EntityType&#45;&gt;Entity</title>
<path fill="none" stroke="#219bc5" d="M83.8713,-245.381C58.5335,-260.498 33.0229,-281.182 18.8684,-308 -8.1003,-359.098 -3.75433,-384.835 18.8684,-438 25.2449,-452.985 35.0213,-466.833 46.1084,-479.181"/>
<ellipse fill="none" stroke="#219bc5" cx="87.5393" cy="-243.264" rx="4.00002" ry="4.00002"/>
<polygon fill="#219bc5" stroke="#219bc5" points="46.307,-479.392 49.8862,-489.758 49.7347,-483.033 53.1624,-486.673 53.1624,-486.673 53.1624,-486.673 49.7347,-483.033 56.4386,-483.588 46.307,-479.392 46.307,-479.392"/>
</g>
<!-- EntityTypeInteraction -->
<g id="node15" class="node"><title>EntityTypeInteraction</title>
<ellipse fill="none" stroke="black" cx="224.868" cy="-58" rx="87.3666" ry="18"/>
<text text-anchor="middle" x="224.868" y="-53.8" font-family="Times,serif" font-size="14.00">EntityTypeInteraction</text>
</g>
<!-- EntityType&#45;&gt;EntityTypeInteraction -->
<g id="edge8" class="edge"><title>EntityType&#45;&gt;EntityTypeInteraction</title>
<path fill="none" stroke="#13449b" d="M185.978,-147.23C195.523,-125.574 205.669,-102.557 213.203,-85.4643"/>
<ellipse fill="none" stroke="#13449b" cx="184.24" cy="-151.172" rx="4.00002" ry="4.00002"/>
<polygon fill="#13449b" stroke="#13449b" points="213.28,-85.2902 221.431,-77.9548 215.297,-80.715 217.313,-76.1397 217.313,-76.1397 217.313,-76.1397 215.297,-80.715 213.196,-74.3246 213.28,-85.2902 213.28,-85.2902"/>
</g>
<!-- Interaction&#45;&gt;EntityType -->
<g id="edge10" class="edge"><title>Interaction&#45;&gt;EntityType</title>
<path fill="none" stroke="#c866bd" d="M218.228,-314.023C211.178,-302.223 203.719,-289.739 196.539,-277.722"/>
<polygon fill="#c866bd" stroke="#c866bd" points="218.461,-314.413 219.727,-325.305 221.026,-318.705 223.59,-322.997 223.59,-322.997 223.59,-322.997 221.026,-318.705 227.453,-320.689 218.461,-314.413 218.461,-314.413"/>
<polygon fill="#c866bd" stroke="#c866bd" points="196.499,-277.655 195.233,-266.762 193.934,-273.363 191.37,-269.071 191.37,-269.071 191.37,-269.071 193.934,-273.363 187.507,-271.379 196.499,-277.655 196.499,-277.655"/>
</g>
<!-- Skill -->
<g id="node11" class="node"><title>Skill</title>
<path fill="none" stroke="black" d="M354.363,-155C354.363,-155 463.374,-155 463.374,-155 469.374,-155 475.374,-161 475.374,-167 475.374,-167 475.374,-257 475.374,-257 475.374,-263 469.374,-269 463.374,-269 463.374,-269 354.363,-269 354.363,-269 348.363,-269 342.363,-263 342.363,-257 342.363,-257 342.363,-167 342.363,-167 342.363,-161 348.363,-155 354.363,-155"/>
<text text-anchor="middle" x="408.868" y="-253.8" font-family="Times,serif" font-size="14.00">Skill</text>
<polyline fill="none" stroke="black" points="342.363,-247 475.374,-247 "/>
<text text-anchor="start" x="350.363" y="-231.8" font-family="Times,serif" font-size="14.00">id :integer</text>
<text text-anchor="start" x="350.363" y="-217.8" font-family="Times,serif" font-size="14.00">title :string</text>
<text text-anchor="start" x="350.363" y="-203.8" font-family="Times,serif" font-size="14.00">description :text</text>
<text text-anchor="start" x="350.363" y="-189.8" font-family="Times,serif" font-size="14.00">attrs :hstore</text>
<text text-anchor="start" x="350.363" y="-175.8" font-family="Times,serif" font-size="14.00">created_at :datetime</text>
<text text-anchor="start" x="350.363" y="-161.8" font-family="Times,serif" font-size="14.00">updated_at :datetime</text>
</g>
<!-- Interaction&#45;&gt;Skill -->
<g id="edge12" class="edge"><title>Interaction&#45;&gt;Skill</title>
<path fill="none" stroke="#c727a2" d="M308.127,-315.679C320.653,-302.912 334.037,-289.271 346.823,-276.238"/>
<polygon fill="#c727a2" stroke="#c727a2" points="307.95,-315.859 297.734,-319.846 304.448,-319.428 300.946,-322.997 300.946,-322.997 300.946,-322.997 304.448,-319.428 304.159,-326.149 307.95,-315.859 307.95,-315.859"/>
<polygon fill="#c727a2" stroke="#c727a2" points="346.852,-276.209 357.068,-272.222 350.354,-272.64 353.856,-269.071 353.856,-269.071 353.856,-269.071 350.354,-272.64 350.644,-265.919 346.852,-276.209 346.852,-276.209"/>
</g>
<!-- Interaction&#45;&gt;EntityTypeInteraction -->
<g id="edge9" class="edge"><title>Interaction&#45;&gt;EntityTypeInteraction</title>
<path fill="none" stroke="#e4a540" d="M247.731,-314.565C241.67,-246.821 231.848,-137.021 227.31,-86.2924"/>
<ellipse fill="none" stroke="#e4a540" cx="248.106" cy="-318.765" rx="4" ry="4"/>
<polygon fill="#e4a540" stroke="#e4a540" points="227.291,-86.08 230.882,-75.7188 226.845,-81.0999 226.4,-76.1198 226.4,-76.1198 226.4,-76.1198 226.845,-81.0999 221.918,-76.5208 227.291,-86.08 227.291,-86.08"/>
</g>
<!-- SkillInteraction -->
<g id="node16" class="node"><title>SkillInteraction</title>
<ellipse fill="none" stroke="black" cx="397.868" cy="-58" rx="65.1792" ry="18"/>
<text text-anchor="middle" x="397.868" y="-53.8" font-family="Times,serif" font-size="14.00">SkillInteraction</text>
</g>
<!-- Interaction&#45;&gt;SkillInteraction -->
<g id="edge11" class="edge"><title>Interaction&#45;&gt;SkillInteraction</title>
<path fill="none" stroke="#919814" d="M269.487,-315.024C283.608,-270.061 305.862,-206.399 332.868,-154 345.83,-128.851 364.336,-102.462 378.289,-83.8976"/>
<ellipse fill="none" stroke="#919814" cx="268.22" cy="-319.095" rx="4.00001" ry="4.00001"/>
<polygon fill="#919814" stroke="#919814" points="378.473,-83.6552 388.114,-78.4298 381.504,-79.6786 384.535,-75.7019 384.535,-75.7019 384.535,-75.7019 381.504,-79.6786 380.956,-72.9741 378.473,-83.6552 378.473,-83.6552"/>
</g>
<!-- Item -->
<g id="node6" class="node"><title>Item</title>
<path fill="none" stroke="black" d="M349.801,-309C349.801,-309 461.936,-309 461.936,-309 467.936,-309 473.936,-315 473.936,-321 473.936,-321 473.936,-425 473.936,-425 473.936,-431 467.936,-437 461.936,-437 461.936,-437 349.801,-437 349.801,-437 343.801,-437 337.801,-431 337.801,-425 337.801,-425 337.801,-321 337.801,-321 337.801,-315 343.801,-309 349.801,-309"/>
<text text-anchor="middle" x="405.868" y="-421.8" font-family="Times,serif" font-size="14.00">Item</text>
<polyline fill="none" stroke="black" points="337.801,-415 473.936,-415 "/>
<text text-anchor="start" x="345.801" y="-399.8" font-family="Times,serif" font-size="14.00">id :integer</text>
<text text-anchor="start" x="345.801" y="-385.8" font-family="Times,serif" font-size="14.00">item_type_id :integer</text>
<text text-anchor="start" x="345.801" y="-371.8" font-family="Times,serif" font-size="14.00">attrs :hstore</text>
<text text-anchor="start" x="345.801" y="-357.8" font-family="Times,serif" font-size="14.00">latitude :decimal</text>
<text text-anchor="start" x="345.801" y="-343.8" font-family="Times,serif" font-size="14.00">longitude :decimal</text>
<text text-anchor="start" x="345.801" y="-329.8" font-family="Times,serif" font-size="14.00">created_at :datetime</text>
<text text-anchor="start" x="345.801" y="-315.8" font-family="Times,serif" font-size="14.00">updated_at :datetime</text>
</g>
<!-- ItemType -->
<g id="node7" class="node"><title>ItemType</title>
<path fill="none" stroke="black" d="M352.363,-484C352.363,-484 461.374,-484 461.374,-484 467.374,-484 473.374,-490 473.374,-496 473.374,-496 473.374,-586 473.374,-586 473.374,-592 467.374,-598 461.374,-598 461.374,-598 352.363,-598 352.363,-598 346.363,-598 340.363,-592 340.363,-586 340.363,-586 340.363,-496 340.363,-496 340.363,-490 346.363,-484 352.363,-484"/>
<text text-anchor="middle" x="406.868" y="-582.8" font-family="Times,serif" font-size="14.00">ItemType</text>
<polyline fill="none" stroke="black" points="340.363,-576 473.374,-576 "/>
<text text-anchor="start" x="348.363" y="-560.8" font-family="Times,serif" font-size="14.00">id :integer</text>
<text text-anchor="start" x="348.363" y="-546.8" font-family="Times,serif" font-size="14.00">name :string</text>
<text text-anchor="start" x="348.363" y="-532.8" font-family="Times,serif" font-size="14.00">description :text</text>
<text text-anchor="start" x="348.363" y="-518.8" font-family="Times,serif" font-size="14.00">attrs :hstore</text>
<text text-anchor="start" x="348.363" y="-504.8" font-family="Times,serif" font-size="14.00">created_at :datetime</text>
<text text-anchor="start" x="348.363" y="-490.8" font-family="Times,serif" font-size="14.00">updated_at :datetime</text>
</g>
<!-- ItemType&#45;&gt;Item -->
<g id="edge15" class="edge"><title>ItemType&#45;&gt;Item</title>
<path fill="none" stroke="#001c69" d="M406.481,-475.625C406.425,-466.378 406.367,-456.806 406.311,-447.4"/>
<ellipse fill="none" stroke="#001c69" cx="406.506" cy="-479.8" rx="4" ry="4"/>
<polygon fill="#001c69" stroke="#001c69" points="406.31,-447.283 410.75,-437.256 406.28,-442.283 406.25,-437.283 406.25,-437.283 406.25,-437.283 406.28,-442.283 401.75,-437.31 406.31,-447.283 406.31,-447.283"/>
</g>
<!-- Player&#45;&gt;PlayerCharacteristic -->
<g id="edge17" class="edge"><title>Player&#45;&gt;PlayerCharacteristic</title>
<path fill="none" stroke="#e3803f" d="M694.105,-308.771C690.019,-301.739 685.88,-294.701 681.868,-288 679.939,-284.778 677.951,-281.488 675.931,-278.172"/>
<ellipse fill="none" stroke="#e3803f" cx="696.163" cy="-312.326" rx="4.00002" ry="4.00002"/>
<polygon fill="#e3803f" stroke="#e3803f" points="675.757,-277.889 674.368,-267.011 673.144,-273.626 670.531,-269.363 670.531,-269.363 670.531,-269.363 673.144,-273.626 666.695,-271.714 675.757,-277.889 675.757,-277.889"/>
</g>
<!-- PlayerSkill -->
<g id="node10" class="node"><title>PlayerSkill</title>
<path fill="none" stroke="black" d="M681.47,-1C681.47,-1 798.267,-1 798.267,-1 804.267,-1 810.267,-7 810.267,-13 810.267,-13 810.267,-103 810.267,-103 810.267,-109 804.267,-115 798.267,-115 798.267,-115 681.47,-115 681.47,-115 675.47,-115 669.47,-109 669.47,-103 669.47,-103 669.47,-13 669.47,-13 669.47,-7 675.47,-1 681.47,-1"/>
<text text-anchor="middle" x="739.868" y="-99.8" font-family="Times,serif" font-size="14.00">PlayerSkill</text>
<polyline fill="none" stroke="black" points="669.47,-93 810.267,-93 "/>
<text text-anchor="start" x="677.47" y="-77.8" font-family="Times,serif" font-size="14.00">id :integer</text>
<text text-anchor="start" x="677.47" y="-63.8" font-family="Times,serif" font-size="14.00">player_id :integer</text>
<text text-anchor="start" x="677.47" y="-49.8" font-family="Times,serif" font-size="14.00">skill_id :integer</text>
<text text-anchor="start" x="677.47" y="-35.8" font-family="Times,serif" font-size="14.00">last_used_at :datetime</text>
<text text-anchor="start" x="677.47" y="-21.8" font-family="Times,serif" font-size="14.00">created_at :datetime</text>
<text text-anchor="start" x="677.47" y="-7.8" font-family="Times,serif" font-size="14.00">updated_at :datetime</text>
</g>
<!-- Player&#45;&gt;PlayerSkill -->
<g id="edge18" class="edge"><title>Player&#45;&gt;PlayerSkill</title>
<path fill="none" stroke="#af4801" d="M731.929,-307.505C733.63,-254.253 736.036,-178.963 737.752,-125.238"/>
<ellipse fill="none" stroke="#af4801" cx="731.796" cy="-311.682" rx="4" ry="4"/>
<polygon fill="#af4801" stroke="#af4801" points="737.756,-125.126 742.573,-115.274 737.915,-120.128 738.075,-115.131 738.075,-115.131 738.075,-115.131 737.915,-120.128 733.577,-114.987 737.756,-125.126 737.756,-125.126"/>
</g>
<!-- Player&#45;&gt;Skill -->
<g id="edge19" class="edge"><title>Player&#45;&gt;Skill</title>
<path fill="none" stroke="#69c889" d="M654.137,-334.488C602.994,-309.155 535.745,-275.845 484.601,-250.513"/>
<polygon fill="#69c889" stroke="#69c889" points="654.396,-334.616 661.36,-343.088 658.877,-336.836 663.357,-339.055 663.357,-339.055 663.357,-339.055 658.877,-336.836 665.354,-335.023 654.396,-334.616 654.396,-334.616"/>
<polygon fill="#69c889" stroke="#69c889" points="484.531,-250.478 477.568,-242.007 480.051,-248.259 475.57,-246.039 475.57,-246.039 475.57,-246.039 480.051,-248.259 473.573,-250.072 484.531,-250.478 484.531,-250.478"/>
</g>
<!-- Skill&#45;&gt;PlayerSkill -->
<g id="edge24" class="edge"><title>Skill&#45;&gt;PlayerSkill</title>
<path fill="none" stroke="#c99f46" d="M482.835,-177.034C535.525,-152.838 606.272,-120.349 660.204,-95.583"/>
<ellipse fill="none" stroke="#c99f46" cx="479.088" cy="-178.754" rx="4.00002" ry="4.00002"/>
<polygon fill="#c99f46" stroke="#c99f46" points="660.301,-95.5386 671.267,-95.4548 664.845,-93.452 669.389,-91.3654 669.389,-91.3654 669.389,-91.3654 664.845,-93.452 667.511,-87.2759 660.301,-95.5386 660.301,-95.5386"/>
</g>
<!-- Skill&#45;&gt;Skill -->
<g id="edge25" class="edge"><title>Skill&#45;&gt;Skill</title>
<path fill="none" stroke="#4497e2" d="M485.148,-222.024C489.964,-219.668 492.868,-216.327 492.868,-212 492.868,-207.673 489.964,-204.332 485.148,-201.976"/>
<polygon fill="#4497e2" stroke="#4497e2" points="484.96,-222.083 474.074,-220.763 480.187,-223.571 475.413,-225.059 475.413,-225.059 475.413,-225.059 480.187,-223.571 476.753,-229.355 484.96,-222.083 484.96,-222.083"/>
<polygon fill="#4497e2" stroke="#4497e2" points="484.96,-201.917 476.753,-194.645 480.187,-200.429 475.413,-198.941 475.413,-198.941 475.413,-198.941 480.187,-200.429 474.074,-203.237 484.96,-201.917 484.96,-201.917"/>
<text text-anchor="middle" x="516.189" y="-207.8" font-family="Times,serif" font-size="14.00">required</text>
</g>
<!-- Skill&#45;&gt;SkillInteraction -->
<g id="edge23" class="edge"><title>Skill&#45;&gt;SkillInteraction</title>
<path fill="none" stroke="#34dbf8" d="M404.205,-146.562C402.679,-125.467 401.064,-103.155 399.846,-86.3332"/>
<ellipse fill="none" stroke="#34dbf8" cx="404.515" cy="-150.843" rx="4" ry="4"/>
<polygon fill="#34dbf8" stroke="#34dbf8" points="399.831,-86.1136 403.597,-75.8149 399.47,-81.1267 399.109,-76.1397 399.109,-76.1397 399.109,-76.1397 399.47,-81.1267 394.621,-76.4646 399.831,-86.1136 399.831,-86.1136"/>
</g>
<!-- User -->
<g id="node12" class="node"><title>User</title>
<path fill="none" stroke="black" d="M769.567,-484C769.567,-484 894.17,-484 894.17,-484 900.17,-484 906.17,-490 906.17,-496 906.17,-496 906.17,-586 906.17,-586 906.17,-592 900.17,-598 894.17,-598 894.17,-598 769.567,-598 769.567,-598 763.567,-598 757.567,-592 757.567,-586 757.567,-586 757.567,-496 757.567,-496 757.567,-490 763.567,-484 769.567,-484"/>
<text text-anchor="middle" x="831.868" y="-582.8" font-family="Times,serif" font-size="14.00">User</text>
<polyline fill="none" stroke="black" points="757.567,-576 906.17,-576 "/>
<text text-anchor="start" x="765.567" y="-560.8" font-family="Times,serif" font-size="14.00">id :integer</text>
<text text-anchor="start" x="765.567" y="-546.8" font-family="Times,serif" font-size="14.00">email :string</text>
<text text-anchor="start" x="765.567" y="-532.8" font-family="Times,serif" font-size="14.00">password_digest :string</text>
<text text-anchor="start" x="765.567" y="-518.8" font-family="Times,serif" font-size="14.00">nick :string</text>
<text text-anchor="start" x="765.567" y="-504.8" font-family="Times,serif" font-size="14.00">created_at :datetime</text>
<text text-anchor="start" x="765.567" y="-490.8" font-family="Times,serif" font-size="14.00">updated_at :datetime</text>
</g>
<!-- User&#45;&gt;Player -->
<g id="edge27" class="edge"><title>User&#45;&gt;Player</title>
<path fill="none" stroke="#327f36" d="M793.047,-476.82C785.086,-463.864 776.704,-450.223 768.741,-437.263"/>
<ellipse fill="none" stroke="#327f36" cx="795.242" cy="-480.392" rx="4.00002" ry="4.00002"/>
<ellipse fill="#327f36" stroke="#327f36" cx="766.46" cy="-433.55" rx="4.00002" ry="4.00002"/>
</g>
<!-- ActiveRecord::Base -->
<g id="node13" class="node"><title>ActiveRecord::Base</title>
<ellipse fill="none" stroke="black" cx="520.868" cy="-681" rx="80.9821" ry="18"/>
<text text-anchor="middle" x="520.868" y="-676.8" font-family="Times,serif" font-size="14.00">ActiveRecord::Base</text>
</g>
<!-- ActiveRecord::Base&#45;&gt;Characteristic -->
<g id="edge3" class="edge"><title>ActiveRecord::Base&#45;&gt;Characteristic</title>
<path fill="none" stroke="black" d="M534.847,-663.078C548.225,-646.885 569.161,-621.541 588.428,-598.217"/>
</g>
<!-- ActiveRecord::Base&#45;&gt;Entity -->
<g id="edge6" class="edge"><title>ActiveRecord::Base&#45;&gt;Entity</title>
<path fill="none" stroke="black" d="M487.884,-664.383C470.916,-657.015 449.682,-648.805 429.868,-644 351.304,-624.947 324.884,-653.513 248.868,-626 230.898,-619.496 213.024,-609.802 196.674,-599.287"/>
</g>
<!-- ActiveRecord::Base&#45;&gt;Interaction -->
<g id="edge13" class="edge"><title>ActiveRecord::Base&#45;&gt;Interaction</title>
<path fill="none" stroke="black" d="M485.913,-664.599C469.184,-657.636 448.732,-649.709 429.868,-644 375.512,-627.548 342.668,-650.881 307.868,-606 266.778,-553.006 255.668,-474.177 253.049,-423.433"/>
</g>
<!-- ActiveRecord::Base&#45;&gt;Item -->
<g id="edge14" class="edge"><title>ActiveRecord::Base&#45;&gt;Item</title>
<path fill="none" stroke="black" d="M483.269,-665.026C466.882,-658.525 447.44,-650.848 429.868,-644 385.955,-626.887 357.564,-644.841 330.868,-606 298.142,-558.384 312.857,-530.899 330.868,-476 335.288,-462.529 342.241,-449.371 350.171,-437.224"/>
</g>
<!-- ActiveRecord::Base&#45;&gt;ItemType -->
<g id="edge16" class="edge"><title>ActiveRecord::Base&#45;&gt;ItemType</title>
<path fill="none" stroke="black" d="M506.89,-663.078C493.512,-646.885 472.576,-621.541 453.309,-598.217"/>
</g>
<!-- ActiveRecord::Base&#45;&gt;Player -->
<g id="edge20" class="edge"><title>ActiveRecord::Base&#45;&gt;Player</title>
<path fill="none" stroke="black" d="M589.469,-671.37C631.143,-662.325 681.601,-643.823 709.868,-606 747.38,-555.806 746.8,-481.345 740.502,-430.403"/>
</g>
<!-- ActiveRecord::Base&#45;&gt;PlayerCharacteristic -->
<g id="edge21" class="edge"><title>ActiveRecord::Base&#45;&gt;PlayerCharacteristic</title>
<path fill="none" stroke="black" d="M523.468,-662.957C528.96,-627.787 542.583,-544.707 558.868,-476 575.969,-403.855 600.45,-321.975 616.966,-269.015"/>
</g>
<!-- ActiveRecord::Base&#45;&gt;PlayerSkill -->
<g id="edge22" class="edge"><title>ActiveRecord::Base&#45;&gt;PlayerSkill</title>
<path fill="none" stroke="black" d="M597.635,-674.96C698.774,-666.782 869.196,-647.198 914.868,-606 936.901,-586.126 933.868,-571.671 933.868,-542 933.868,-542 933.868,-542 933.868,-211 933.868,-146.177 865.925,-104.844 810.456,-81.9013"/>
</g>
<!-- ActiveRecord::Base&#45;&gt;Skill -->
<g id="edge26" class="edge"><title>ActiveRecord::Base&#45;&gt;Skill</title>
<path fill="none" stroke="black" d="M522.373,-662.901C526.482,-608.635 534.388,-436.322 482.868,-308 477.416,-294.419 469.413,-281.163 460.661,-269.068"/>
</g>
<!-- ActiveRecord::Base&#45;&gt;User -->
<g id="edge28" class="edge"><title>ActiveRecord::Base&#45;&gt;User</title>
<path fill="none" stroke="black" d="M592.361,-672.368C637.899,-665.231 696.934,-651.632 743.868,-626 757.4,-618.61 770.37,-608.604 781.999,-598.075"/>
</g>
</g>
</svg>
