<?xml version="1.0" encoding="UTF-8" standalone="no"?>
<!DOCTYPE svg PUBLIC "-//W3C//DTD SVG 1.1//EN"
 "http://www.w3.org/Graphics/SVG/1.1/DTD/svg11.dtd">
<!-- Generated by graphviz version 2.36.0 (20140111.2315)
 -->
<!-- Title: models_diagram Pages: 1 -->
<svg width="1067pt" height="726pt"
 viewBox="0.00 0.00 1067.00 726.00" xmlns="http://www.w3.org/2000/svg" xmlns:xlink="http://www.w3.org/1999/xlink">
<g id="graph0" class="graph" transform="scale(1 1) rotate(0) translate(4 722)">
<title>models_diagram</title>
<polygon fill="white" stroke="none" points="-4,4 -4,-722 1063,-722 1063,4 -4,4"/>
<!-- _diagram_info -->
<g id="node1" class="node"><title>_diagram_info</title>
<text text-anchor="start" x="360.312" y="-703.1" font-family="Times,serif" font-size="13.00">Models diagram</text>
<text text-anchor="start" x="360.312" y="-690.1" font-family="Times,serif" font-size="13.00">Date: Feb 20 2014 &#45; 03:51</text>
<text text-anchor="start" x="360.312" y="-677.1" font-family="Times,serif" font-size="13.00">Migration version: 20140202161047</text>
<text text-anchor="start" x="360.312" y="-664.1" font-family="Times,serif" font-size="13.00">Generated by RailRoady 1.1.1</text>
<text text-anchor="start" x="360.312" y="-651.1" font-family="Times,serif" font-size="13.00">http://railroady.prestonlee.com</text>
</g>
<!-- Characteristic -->
<g id="node2" class="node"><title>Characteristic</title>
<path fill="none" stroke="black" d="M871.495,-491C871.495,-491 980.505,-491 980.505,-491 986.505,-491 992.505,-497 992.505,-503 992.505,-503 992.505,-593 992.505,-593 992.505,-599 986.505,-605 980.505,-605 980.505,-605 871.495,-605 871.495,-605 865.495,-605 859.495,-599 859.495,-593 859.495,-593 859.495,-503 859.495,-503 859.495,-497 865.495,-491 871.495,-491"/>
<text text-anchor="middle" x="926" y="-589.8" font-family="Times,serif" font-size="14.00">Characteristic</text>
<polyline fill="none" stroke="black" points="859.495,-583 992.505,-583 "/>
<text text-anchor="start" x="867.495" y="-567.8" font-family="Times,serif" font-size="14.00">id :integer</text>
<text text-anchor="start" x="867.495" y="-553.8" font-family="Times,serif" font-size="14.00">title :string</text>
<text text-anchor="start" x="867.495" y="-539.8" font-family="Times,serif" font-size="14.00">description :text</text>
<text text-anchor="start" x="867.495" y="-525.8" font-family="Times,serif" font-size="14.00">attrs :hstore</text>
<text text-anchor="start" x="867.495" y="-511.8" font-family="Times,serif" font-size="14.00">created_at :datetime</text>
<text text-anchor="start" x="867.495" y="-497.8" font-family="Times,serif" font-size="14.00">updated_at :datetime</text>
</g>
<!-- Player -->
<g id="node8" class="node"><title>Player</title>
<path fill="none" stroke="black" d="M775.495,-330C775.495,-330 884.505,-330 884.505,-330 890.505,-330 896.505,-336 896.505,-342 896.505,-342 896.505,-432 896.505,-432 896.505,-438 890.505,-444 884.505,-444 884.505,-444 775.495,-444 775.495,-444 769.495,-444 763.495,-438 763.495,-432 763.495,-432 763.495,-342 763.495,-342 763.495,-336 769.495,-330 775.495,-330"/>
<text text-anchor="middle" x="830" y="-428.8" font-family="Times,serif" font-size="14.00">Player</text>
<polyline fill="none" stroke="black" points="763.495,-422 896.505,-422 "/>
<text text-anchor="start" x="771.495" y="-406.8" font-family="Times,serif" font-size="14.00">id :integer</text>
<text text-anchor="start" x="771.495" y="-392.8" font-family="Times,serif" font-size="14.00">user_id :integer</text>
<text text-anchor="start" x="771.495" y="-378.8" font-family="Times,serif" font-size="14.00">latitude :decimal</text>
<text text-anchor="start" x="771.495" y="-364.8" font-family="Times,serif" font-size="14.00">longitude :decimal</text>
<text text-anchor="start" x="771.495" y="-350.8" font-family="Times,serif" font-size="14.00">created_at :datetime</text>
<text text-anchor="start" x="771.495" y="-336.8" font-family="Times,serif" font-size="14.00">updated_at :datetime</text>
</g>
<!-- Characteristic&#45;&gt;Player -->
<g id="edge2" class="edge"><title>Characteristic&#45;&gt;Player</title>
<path fill="none" stroke="#7dc1c7" d="M886.922,-482.277C881.07,-472.584 875.034,-462.587 869.179,-452.89"/>
<polygon fill="#7dc1c7" stroke="#7dc1c7" points="886.985,-482.382 888.302,-493.268 889.57,-486.662 892.154,-490.943 892.154,-490.943 892.154,-490.943 889.57,-486.662 896.006,-488.617 886.985,-482.382 886.985,-482.382"/>
<polygon fill="#7dc1c7" stroke="#7dc1c7" points="869.033,-452.648 867.716,-441.761 866.448,-448.367 863.864,-444.087 863.864,-444.087 863.864,-444.087 866.448,-448.367 860.012,-446.413 869.033,-452.648 869.033,-452.648"/>
</g>
<!-- PlayerCharacteristic -->
<g id="node9" class="node"><title>PlayerCharacteristic</title>
<path fill="none" stroke="black" d="M867.619,-162C867.619,-162 998.381,-162 998.381,-162 1004.38,-162 1010.38,-168 1010.38,-174 1010.38,-174 1010.38,-264 1010.38,-264 1010.38,-270 1004.38,-276 998.381,-276 998.381,-276 867.619,-276 867.619,-276 861.619,-276 855.619,-270 855.619,-264 855.619,-264 855.619,-174 855.619,-174 855.619,-168 861.619,-162 867.619,-162"/>
<text text-anchor="middle" x="933" y="-260.8" font-family="Times,serif" font-size="14.00">PlayerCharacteristic</text>
<polyline fill="none" stroke="black" points="855.619,-254 1010.38,-254 "/>
<text text-anchor="start" x="863.619" y="-238.8" font-family="Times,serif" font-size="14.00">id :integer</text>
<text text-anchor="start" x="863.619" y="-224.8" font-family="Times,serif" font-size="14.00">player_id :integer</text>
<text text-anchor="start" x="863.619" y="-210.8" font-family="Times,serif" font-size="14.00">characteristic_id :integer</text>
<text text-anchor="start" x="863.619" y="-196.8" font-family="Times,serif" font-size="14.00">value :float</text>
<text text-anchor="start" x="863.619" y="-182.8" font-family="Times,serif" font-size="14.00">created_at :datetime</text>
<text text-anchor="start" x="863.619" y="-168.8" font-family="Times,serif" font-size="14.00">updated_at :datetime</text>
</g>
<!-- Characteristic&#45;&gt;PlayerCharacteristic -->
<g id="edge1" class="edge"><title>Characteristic&#45;&gt;PlayerCharacteristic</title>
<path fill="none" stroke="#d73b30" d="M927.381,-482.487C928.597,-425.684 930.36,-343.318 931.586,-286.058"/>
<ellipse fill="none" stroke="#d73b30" cx="927.289" cy="-486.788" rx="4" ry="4"/>
<polygon fill="#d73b30" stroke="#d73b30" points="931.587,-286.024 936.3,-276.122 931.694,-281.025 931.801,-276.026 931.801,-276.026 931.801,-276.026 931.694,-281.025 927.302,-275.93 931.587,-286.024 931.587,-286.024"/>
</g>
<!-- Entity -->
<g id="node3" class="node"><title>Entity</title>
<path fill="none" stroke="black" d="M11.4326,-155C11.4326,-155 130.567,-155 130.567,-155 136.567,-155 142.567,-161 142.567,-167 142.567,-167 142.567,-271 142.567,-271 142.567,-277 136.567,-283 130.567,-283 130.567,-283 11.4326,-283 11.4326,-283 5.43262,-283 -0.567383,-277 -0.567383,-271 -0.567383,-271 -0.567383,-167 -0.567383,-167 -0.567383,-161 5.43262,-155 11.4326,-155"/>
<text text-anchor="middle" x="71" y="-267.8" font-family="Times,serif" font-size="14.00">Entity</text>
<polyline fill="none" stroke="black" points="-0.567383,-261 142.567,-261 "/>
<text text-anchor="start" x="7.43262" y="-245.8" font-family="Times,serif" font-size="14.00">id :integer</text>
<text text-anchor="start" x="7.43262" y="-231.8" font-family="Times,serif" font-size="14.00">entity_type_id :integer</text>
<text text-anchor="start" x="7.43262" y="-217.8" font-family="Times,serif" font-size="14.00">attrs :hstore</text>
<text text-anchor="start" x="7.43262" y="-203.8" font-family="Times,serif" font-size="14.00">latitude :decimal</text>
<text text-anchor="start" x="7.43262" y="-189.8" font-family="Times,serif" font-size="14.00">longitude :decimal</text>
<text text-anchor="start" x="7.43262" y="-175.8" font-family="Times,serif" font-size="14.00">created_at :datetime</text>
<text text-anchor="start" x="7.43262" y="-161.8" font-family="Times,serif" font-size="14.00">updated_at :datetime</text>
</g>
<!-- EntityType -->
<g id="node4" class="node"><title>EntityType</title>
<path fill="none" stroke="black" d="M211.495,-330C211.495,-330 320.505,-330 320.505,-330 326.505,-330 332.505,-336 332.505,-342 332.505,-342 332.505,-432 332.505,-432 332.505,-438 326.505,-444 320.505,-444 320.505,-444 211.495,-444 211.495,-444 205.495,-444 199.495,-438 199.495,-432 199.495,-432 199.495,-342 199.495,-342 199.495,-336 205.495,-330 211.495,-330"/>
<text text-anchor="middle" x="266" y="-428.8" font-family="Times,serif" font-size="14.00">EntityType</text>
<polyline fill="none" stroke="black" points="199.495,-422 332.505,-422 "/>
<text text-anchor="start" x="207.495" y="-406.8" font-family="Times,serif" font-size="14.00">id :integer</text>
<text text-anchor="start" x="207.495" y="-392.8" font-family="Times,serif" font-size="14.00">name :string</text>
<text text-anchor="start" x="207.495" y="-378.8" font-family="Times,serif" font-size="14.00">description :text</text>
<text text-anchor="start" x="207.495" y="-364.8" font-family="Times,serif" font-size="14.00">attrs :hstore</text>
<text text-anchor="start" x="207.495" y="-350.8" font-family="Times,serif" font-size="14.00">created_at :datetime</text>
<text text-anchor="start" x="207.495" y="-336.8" font-family="Times,serif" font-size="14.00">updated_at :datetime</text>
</g>
<!-- EntityType&#45;&gt;Entity -->
<g id="edge5" class="edge"><title>EntityType&#45;&gt;Entity</title>
<path fill="none" stroke="#1d4f41" d="M193.871,-324.598C179.755,-312.582 164.878,-299.916 150.537,-287.708"/>
<ellipse fill="none" stroke="#1d4f41" cx="196.936" cy="-327.207" rx="4.00002" ry="4.00002"/>
<polygon fill="#1d4f41" stroke="#1d4f41" points="150.248,-287.462 145.55,-277.553 146.44,-284.221 142.633,-280.98 142.633,-280.98 142.633,-280.98 146.44,-284.221 139.716,-284.407 150.248,-287.462 150.248,-287.462"/>
</g>
<!-- EntityTypeInteraction -->
<g id="node14" class="node"><title>EntityTypeInteraction</title>
<ellipse fill="none" stroke="black" cx="287" cy="-219" rx="87.3666" ry="18"/>
<text text-anchor="middle" x="287" y="-214.8" font-family="Times,serif" font-size="14.00">EntityTypeInteraction</text>
</g>
<!-- EntityType&#45;&gt;EntityTypeInteraction -->
<g id="edge6" class="edge"><title>EntityType&#45;&gt;EntityTypeInteraction</title>
<path fill="none" stroke="#74b575" d="M274.131,-321.727C277.399,-295.892 280.99,-267.504 283.547,-247.296"/>
<ellipse fill="none" stroke="#74b575" cx="273.612" cy="-325.832" rx="4.00001" ry="4.00001"/>
<polygon fill="#74b575" stroke="#74b575" points="283.562,-247.177 289.281,-237.821 284.189,-242.217 284.817,-237.256 284.817,-237.256 284.817,-237.256 284.189,-242.217 280.353,-236.691 283.562,-247.177 283.562,-247.177"/>
</g>
<!-- Interaction -->
<g id="node5" class="node"><title>Interaction</title>
<path fill="none" stroke="black" d="M287.495,-498C287.495,-498 396.505,-498 396.505,-498 402.505,-498 408.505,-504 408.505,-510 408.505,-510 408.505,-586 408.505,-586 408.505,-592 402.505,-598 396.505,-598 396.505,-598 287.495,-598 287.495,-598 281.495,-598 275.495,-592 275.495,-586 275.495,-586 275.495,-510 275.495,-510 275.495,-504 281.495,-498 287.495,-498"/>
<text text-anchor="middle" x="342" y="-582.8" font-family="Times,serif" font-size="14.00">Interaction</text>
<polyline fill="none" stroke="black" points="275.495,-576 408.505,-576 "/>
<text text-anchor="start" x="283.495" y="-560.8" font-family="Times,serif" font-size="14.00">id :integer</text>
<text text-anchor="start" x="283.495" y="-546.8" font-family="Times,serif" font-size="14.00">title :string</text>
<text text-anchor="start" x="283.495" y="-532.8" font-family="Times,serif" font-size="14.00">description :text</text>
<text text-anchor="start" x="283.495" y="-518.8" font-family="Times,serif" font-size="14.00">created_at :datetime</text>
<text text-anchor="start" x="283.495" y="-504.8" font-family="Times,serif" font-size="14.00">updated_at :datetime</text>
</g>
<!-- Interaction&#45;&gt;EntityType -->
<g id="edge8" class="edge"><title>Interaction&#45;&gt;EntityType</title>
<path fill="none" stroke="#a5f5f5" d="M314.089,-488.608C308.603,-477.131 302.815,-465.021 297.228,-453.333"/>
<polygon fill="#a5f5f5" stroke="#a5f5f5" points="314.265,-488.975 314.517,-499.938 316.421,-493.486 318.577,-497.997 318.577,-497.997 318.577,-497.997 316.421,-493.486 322.637,-496.057 314.265,-488.975 314.265,-488.975"/>
<polygon fill="#a5f5f5" stroke="#a5f5f5" points="297.114,-453.093 296.861,-442.13 294.957,-448.582 292.801,-444.071 292.801,-444.071 292.801,-444.071 294.957,-448.582 288.741,-446.011 297.114,-453.093 297.114,-453.093"/>
</g>
<!-- Skill -->
<g id="node11" class="node"><title>Skill</title>
<path fill="none" stroke="black" d="M404.495,-162C404.495,-162 513.505,-162 513.505,-162 519.505,-162 525.505,-168 525.505,-174 525.505,-174 525.505,-264 525.505,-264 525.505,-270 519.505,-276 513.505,-276 513.505,-276 404.495,-276 404.495,-276 398.495,-276 392.495,-270 392.495,-264 392.495,-264 392.495,-174 392.495,-174 392.495,-168 398.495,-162 404.495,-162"/>
<text text-anchor="middle" x="459" y="-260.8" font-family="Times,serif" font-size="14.00">Skill</text>
<polyline fill="none" stroke="black" points="392.495,-254 525.505,-254 "/>
<text text-anchor="start" x="400.495" y="-238.8" font-family="Times,serif" font-size="14.00">id :integer</text>
<text text-anchor="start" x="400.495" y="-224.8" font-family="Times,serif" font-size="14.00">title :string</text>
<text text-anchor="start" x="400.495" y="-210.8" font-family="Times,serif" font-size="14.00">description :text</text>
<text text-anchor="start" x="400.495" y="-196.8" font-family="Times,serif" font-size="14.00">attrs :hstore</text>
<text text-anchor="start" x="400.495" y="-182.8" font-family="Times,serif" font-size="14.00">created_at :datetime</text>
<text text-anchor="start" x="400.495" y="-168.8" font-family="Times,serif" font-size="14.00">updated_at :datetime</text>
</g>
<!-- Interaction&#45;&gt;Skill -->
<g id="edge10" class="edge"><title>Interaction&#45;&gt;Skill</title>
<path fill="none" stroke="#574e33" d="M360.808,-487.968C380.34,-427.062 409.846,-336.27 423,-302 425.07,-296.607 427.298,-291.052 429.593,-285.495"/>
<polygon fill="#574e33" stroke="#574e33" points="360.694,-488.324 353.358,-496.474 359.169,-493.085 357.643,-497.847 357.643,-497.847 357.643,-497.847 359.169,-493.085 361.929,-499.22 360.694,-488.324 360.694,-488.324"/>
<polygon fill="#574e33" stroke="#574e33" points="429.636,-285.393 437.655,-277.913 431.571,-280.782 433.506,-276.171 433.506,-276.171 433.506,-276.171 431.571,-280.782 429.356,-274.43 429.636,-285.393 429.636,-285.393"/>
</g>
<!-- Interaction&#45;&gt;EntityTypeInteraction -->
<g id="edge7" class="edge"><title>Interaction&#45;&gt;EntityTypeInteraction</title>
<path fill="none" stroke="#9915c5" d="M349.193,-489.811C353.218,-443.766 354.981,-377.76 341,-322 333.985,-294.022 317.784,-265.257 304.947,-245.436"/>
<ellipse fill="none" stroke="#9915c5" cx="348.814" cy="-493.9" rx="4" ry="4"/>
<polygon fill="#9915c5" stroke="#9915c5" points="304.869,-245.32 303.077,-234.501 302.1,-241.157 299.33,-236.994 299.33,-236.994 299.33,-236.994 302.1,-241.157 295.584,-239.486 304.869,-245.32 304.869,-245.32"/>
</g>
<!-- SkillInteraction -->
<g id="node15" class="node"><title>SkillInteraction</title>
<ellipse fill="none" stroke="black" cx="243" cy="-58" rx="65.1792" ry="18"/>
<text text-anchor="middle" x="243" y="-53.8" font-family="Times,serif" font-size="14.00">SkillInteraction</text>
</g>
<!-- Interaction&#45;&gt;SkillInteraction -->
<g id="edge9" class="edge"><title>Interaction&#45;&gt;SkillInteraction</title>
<path fill="none" stroke="#a6dea3" d="M267.868,-519.579C238.106,-504.481 206.897,-482.486 190,-452 125.795,-336.158 156.663,-282.18 190,-154 196.659,-128.396 211.899,-102.369 224.336,-84.047"/>
<ellipse fill="none" stroke="#a6dea3" cx="271.803" cy="-521.509" rx="4.00002" ry="4.00002"/>
<polygon fill="#a6dea3" stroke="#a6dea3" points="224.436,-83.9032 233.854,-78.2857 227.301,-79.8053 230.166,-75.7074 230.166,-75.7074 230.166,-75.7074 227.301,-79.8053 226.478,-73.129 224.436,-83.9032 224.436,-83.9032"/>
</g>
<!-- Item -->
<g id="node6" class="node"><title>Item</title>
<path fill="none" stroke="black" d="M540.933,-323C540.933,-323 653.067,-323 653.067,-323 659.067,-323 665.067,-329 665.067,-335 665.067,-335 665.067,-439 665.067,-439 665.067,-445 659.067,-451 653.067,-451 653.067,-451 540.933,-451 540.933,-451 534.933,-451 528.933,-445 528.933,-439 528.933,-439 528.933,-335 528.933,-335 528.933,-329 534.933,-323 540.933,-323"/>
<text text-anchor="middle" x="597" y="-435.8" font-family="Times,serif" font-size="14.00">Item</text>
<polyline fill="none" stroke="black" points="528.933,-429 665.067,-429 "/>
<text text-anchor="start" x="536.933" y="-413.8" font-family="Times,serif" font-size="14.00">id :integer</text>
<text text-anchor="start" x="536.933" y="-399.8" font-family="Times,serif" font-size="14.00">item_type_id :integer</text>
<text text-anchor="start" x="536.933" y="-385.8" font-family="Times,serif" font-size="14.00">attrs :hstore</text>
<text text-anchor="start" x="536.933" y="-371.8" font-family="Times,serif" font-size="14.00">latitude :decimal</text>
<text text-anchor="start" x="536.933" y="-357.8" font-family="Times,serif" font-size="14.00">longitude :decimal</text>
<text text-anchor="start" x="536.933" y="-343.8" font-family="Times,serif" font-size="14.00">created_at :datetime</text>
<text text-anchor="start" x="536.933" y="-329.8" font-family="Times,serif" font-size="14.00">updated_at :datetime</text>
</g>
<!-- ItemType -->
<g id="node7" class="node"><title>ItemType</title>
<path fill="none" stroke="black" d="M477.495,-491C477.495,-491 586.505,-491 586.505,-491 592.505,-491 598.505,-497 598.505,-503 598.505,-503 598.505,-593 598.505,-593 598.505,-599 592.505,-605 586.505,-605 586.505,-605 477.495,-605 477.495,-605 471.495,-605 465.495,-599 465.495,-593 465.495,-593 465.495,-503 465.495,-503 465.495,-497 471.495,-491 477.495,-491"/>
<text text-anchor="middle" x="532" y="-589.8" font-family="Times,serif" font-size="14.00">ItemType</text>
<polyline fill="none" stroke="black" points="465.495,-583 598.505,-583 "/>
<text text-anchor="start" x="473.495" y="-567.8" font-family="Times,serif" font-size="14.00">id :integer</text>
<text text-anchor="start" x="473.495" y="-553.8" font-family="Times,serif" font-size="14.00">name :string</text>
<text text-anchor="start" x="473.495" y="-539.8" font-family="Times,serif" font-size="14.00">description :text</text>
<text text-anchor="start" x="473.495" y="-525.8" font-family="Times,serif" font-size="14.00">attrs :hstore</text>
<text text-anchor="start" x="473.495" y="-511.8" font-family="Times,serif" font-size="14.00">created_at :datetime</text>
<text text-anchor="start" x="473.495" y="-497.8" font-family="Times,serif" font-size="14.00">updated_at :datetime</text>
</g>
<!-- ItemType&#45;&gt;Item -->
<g id="edge13" class="edge"><title>ItemType&#45;&gt;Item</title>
<path fill="none" stroke="#cd953a" d="M558.038,-483.307C561.118,-475.774 564.278,-468.043 567.402,-460.4"/>
<ellipse fill="none" stroke="#cd953a" cx="556.43" cy="-487.24" rx="4.00001" ry="4.00001"/>
<polygon fill="#cd953a" stroke="#cd953a" points="567.404,-460.397 575.353,-452.844 569.296,-455.769 571.188,-451.141 571.188,-451.141 571.188,-451.141 569.296,-455.769 567.022,-449.438 567.404,-460.397 567.404,-460.397"/>
</g>
<!-- Player&#45;&gt;PlayerCharacteristic -->
<g id="edge15" class="edge"><title>Player&#45;&gt;PlayerCharacteristic</title>
<path fill="none" stroke="#87a7b3" d="M869.202,-322.82C876.943,-310.344 885.079,-297.232 892.851,-284.706"/>
<ellipse fill="none" stroke="#87a7b3" cx="866.98" cy="-326.401" rx="4.00002" ry="4.00002"/>
<polygon fill="#87a7b3" stroke="#87a7b3" points="892.892,-284.639 901.989,-278.515 895.529,-280.391 898.165,-276.142 898.165,-276.142 898.165,-276.142 895.529,-280.391 894.341,-273.77 892.892,-284.639 892.892,-284.639"/>
</g>
<!-- PlayerSkill -->
<g id="node10" class="node"><title>PlayerSkill</title>
<path fill="none" stroke="black" d="M769.602,-1C769.602,-1 886.398,-1 886.398,-1 892.398,-1 898.398,-7 898.398,-13 898.398,-13 898.398,-103 898.398,-103 898.398,-109 892.398,-115 886.398,-115 886.398,-115 769.602,-115 769.602,-115 763.602,-115 757.602,-109 757.602,-103 757.602,-103 757.602,-13 757.602,-13 757.602,-7 763.602,-1 769.602,-1"/>
<text text-anchor="middle" x="828" y="-99.8" font-family="Times,serif" font-size="14.00">PlayerSkill</text>
<polyline fill="none" stroke="black" points="757.602,-93 898.398,-93 "/>
<text text-anchor="start" x="765.602" y="-77.8" font-family="Times,serif" font-size="14.00">id :integer</text>
<text text-anchor="start" x="765.602" y="-63.8" font-family="Times,serif" font-size="14.00">player_id :integer</text>
<text text-anchor="start" x="765.602" y="-49.8" font-family="Times,serif" font-size="14.00">skill_id :integer</text>
<text text-anchor="start" x="765.602" y="-35.8" font-family="Times,serif" font-size="14.00">last_used_at :datetime</text>
<text text-anchor="start" x="765.602" y="-21.8" font-family="Times,serif" font-size="14.00">created_at :datetime</text>
<text text-anchor="start" x="765.602" y="-7.8" font-family="Times,serif" font-size="14.00">updated_at :datetime</text>
</g>
<!-- Player&#45;&gt;PlayerSkill -->
<g id="edge16" class="edge"><title>Player&#45;&gt;PlayerSkill</title>
<path fill="none" stroke="#54af52" d="M829.605,-321.487C829.258,-264.684 828.754,-182.318 828.404,-125.058"/>
<ellipse fill="none" stroke="#54af52" cx="829.632" cy="-325.787" rx="4" ry="4"/>
<polygon fill="#54af52" stroke="#54af52" points="828.404,-125.026 832.843,-114.998 828.373,-120.026 828.343,-115.026 828.343,-115.026 828.343,-115.026 828.373,-120.026 823.843,-115.054 828.404,-125.026 828.404,-125.026"/>
</g>
<!-- Player&#45;&gt;Skill -->
<g id="edge17" class="edge"><title>Player&#45;&gt;Skill</title>
<path fill="none" stroke="#96b2ad" d="M753.966,-351.979C689.912,-323.319 598.746,-282.528 534.768,-253.901"/>
<polygon fill="#96b2ad" stroke="#96b2ad" points="754.116,-352.047 761.406,-360.238 758.68,-354.089 763.244,-356.131 763.244,-356.131 763.244,-356.131 758.68,-354.089 765.082,-352.023 754.116,-352.047 754.116,-352.047"/>
<polygon fill="#96b2ad" stroke="#96b2ad" points="534.66,-253.853 527.37,-245.661 530.096,-251.811 525.532,-249.769 525.532,-249.769 525.532,-249.769 530.096,-251.811 523.694,-253.877 534.66,-253.853 534.66,-253.853"/>
</g>
<!-- Skill&#45;&gt;PlayerSkill -->
<g id="edge22" class="edge"><title>Skill&#45;&gt;PlayerSkill</title>
<path fill="none" stroke="#f187db" d="M533.255,-186.004C595.622,-159.131 684.528,-120.821 748.362,-93.3157"/>
<ellipse fill="none" stroke="#f187db" cx="529.497" cy="-187.623" rx="4.00002" ry="4.00002"/>
<polygon fill="#f187db" stroke="#f187db" points="748.408,-93.2957 759.373,-93.4711 753,-91.3171 757.592,-89.3385 757.592,-89.3385 757.592,-89.3385 753,-91.3171 755.811,-85.2058 748.408,-93.2957 748.408,-93.2957"/>
</g>
<!-- Skill&#45;&gt;Skill -->
<g id="edge23" class="edge"><title>Skill&#45;&gt;Skill</title>
<path fill="none" stroke="#8cbd69" d="M535.28,-230.079C540.096,-227.475 543,-223.782 543,-219 543,-214.218 540.096,-210.525 535.28,-207.921"/>
<polygon fill="#8cbd69" stroke="#8cbd69" points="534.999,-230.176 524.079,-229.179 530.272,-231.805 525.545,-233.434 525.545,-233.434 525.545,-233.434 530.272,-231.805 527.011,-237.688 534.999,-230.176 534.999,-230.176"/>
<polygon fill="#8cbd69" stroke="#8cbd69" points="534.999,-207.824 527.011,-200.312 530.272,-206.195 525.545,-204.566 525.545,-204.566 525.545,-204.566 530.272,-206.195 524.079,-208.821 534.999,-207.824 534.999,-207.824"/>
<text text-anchor="middle" x="566.321" y="-214.8" font-family="Times,serif" font-size="14.00">required</text>
</g>
<!-- Skill&#45;&gt;SkillInteraction -->
<g id="edge21" class="edge"><title>Skill&#45;&gt;SkillInteraction</title>
<path fill="none" stroke="#5a2465" d="M386.42,-156.609C385.275,-155.729 384.135,-154.859 383,-154 347.558,-127.166 305.092,-98.8572 276.293,-80.1958"/>
<ellipse fill="none" stroke="#5a2465" cx="389.854" cy="-159.282" rx="4.00002" ry="4.00002"/>
<polygon fill="#5a2465" stroke="#5a2465" points="276.22,-80.1485 270.257,-70.9453 272.019,-77.4375 267.817,-74.7264 267.817,-74.7264 267.817,-74.7264 272.019,-77.4375 265.377,-78.5075 276.22,-80.1485 276.22,-80.1485"/>
</g>
<!-- User -->
<g id="node12" class="node"><title>User</title>
<path fill="none" stroke="black" d="M666.698,-491C666.698,-491 791.302,-491 791.302,-491 797.302,-491 803.302,-497 803.302,-503 803.302,-503 803.302,-593 803.302,-593 803.302,-599 797.302,-605 791.302,-605 791.302,-605 666.698,-605 666.698,-605 660.698,-605 654.698,-599 654.698,-593 654.698,-593 654.698,-503 654.698,-503 654.698,-497 660.698,-491 666.698,-491"/>
<text text-anchor="middle" x="729" y="-589.8" font-family="Times,serif" font-size="14.00">User</text>
<polyline fill="none" stroke="black" points="654.698,-583 803.302,-583 "/>
<text text-anchor="start" x="662.698" y="-567.8" font-family="Times,serif" font-size="14.00">id :integer</text>
<text text-anchor="start" x="662.698" y="-553.8" font-family="Times,serif" font-size="14.00">email :string</text>
<text text-anchor="start" x="662.698" y="-539.8" font-family="Times,serif" font-size="14.00">password_digest :string</text>
<text text-anchor="start" x="662.698" y="-525.8" font-family="Times,serif" font-size="14.00">nick :string</text>
<text text-anchor="start" x="662.698" y="-511.8" font-family="Times,serif" font-size="14.00">created_at :datetime</text>
<text text-anchor="start" x="662.698" y="-497.8" font-family="Times,serif" font-size="14.00">updated_at :datetime</text>
</g>
<!-- User&#45;&gt;Player -->
<g id="edge25" class="edge"><title>User&#45;&gt;Player</title>
<path fill="none" stroke="#520081" d="M768.956,-484.099C775.841,-473.26 783,-461.99 789.89,-451.144"/>
<ellipse fill="none" stroke="#520081" cx="766.754" cy="-487.566" rx="4.00002" ry="4.00002"/>
<ellipse fill="#520081" stroke="#520081" cx="792.228" cy="-447.464" rx="4.00002" ry="4.00002"/>
</g>
<!-- ActiveRecord::Base -->
<g id="node13" class="node"><title>ActiveRecord::Base</title>
<ellipse fill="none" stroke="black" cx="659" cy="-681" rx="80.9821" ry="18"/>
<text text-anchor="middle" x="659" y="-676.8" font-family="Times,serif" font-size="14.00">ActiveRecord::Base</text>
</g>
<!-- ActiveRecord::Base&#45;&gt;Characteristic -->
<g id="edge3" class="edge"><title>ActiveRecord::Base&#45;&gt;Characteristic</title>
<path fill="none" stroke="black" d="M721.841,-669.547C759.357,-661.459 806.948,-647.854 845,-626 855.095,-620.202 864.908,-612.892 874.015,-605.098"/>
</g>
<!-- ActiveRecord::Base&#45;&gt;Entity -->
<g id="edge4" class="edge"><title>ActiveRecord::Base&#45;&gt;Entity</title>
<path fill="none" stroke="black" d="M625.975,-664.547C608.996,-657.221 587.766,-648.998 568,-644 436.848,-610.835 382.967,-673.967 266,-606 148.827,-537.914 99.9446,-373.945 81.3035,-283.152"/>
</g>
<!-- ActiveRecord::Base&#45;&gt;Interaction -->
<g id="edge11" class="edge"><title>ActiveRecord::Base&#45;&gt;Interaction</title>
<path fill="none" stroke="black" d="M625.539,-664.404C608.63,-657.135 587.589,-649.004 568,-644 505.081,-627.927 481.704,-653.766 423,-626 408.793,-619.28 395.467,-609.104 383.887,-598.332"/>
</g>
<!-- ActiveRecord::Base&#45;&gt;Item -->
<g id="edge12" class="edge"><title>ActiveRecord::Base&#45;&gt;Item</title>
<path fill="none" stroke="black" d="M655.307,-662.609C646.665,-621.908 624.771,-518.794 610.408,-451.149"/>
</g>
<!-- ActiveRecord::Base&#45;&gt;ItemType -->
<g id="edge14" class="edge"><title>ActiveRecord::Base&#45;&gt;ItemType</title>
<path fill="none" stroke="black" d="M642.657,-663.142C628.387,-648.423 606.839,-626.196 586.538,-605.256"/>
</g>
<!-- ActiveRecord::Base&#45;&gt;Player -->
<g id="edge18" class="edge"><title>ActiveRecord::Base&#45;&gt;Player</title>
<path fill="none" stroke="black" d="M714.884,-667.813C748.76,-657.349 789.631,-638.602 812,-606 844.442,-558.716 844.875,-491.366 839.773,-444.074"/>
</g>
<!-- ActiveRecord::Base&#45;&gt;PlayerCharacteristic -->
<g id="edge19" class="edge"><title>ActiveRecord::Base&#45;&gt;PlayerCharacteristic</title>
<path fill="none" stroke="black" d="M734.705,-674.46C825.088,-666.089 968.196,-646.661 1001,-606 1078.01,-510.54 1012.86,-358.144 967.567,-276.315"/>
</g>
<!-- ActiveRecord::Base&#45;&gt;PlayerSkill -->
<g id="edge20" class="edge"><title>ActiveRecord::Base&#45;&gt;PlayerSkill</title>
<path fill="none" stroke="black" d="M733.396,-673.681C801.163,-666.558 903.419,-652.358 989,-626 1033.2,-612.386 1059,-595.25 1059,-549 1059,-549 1059,-549 1059,-218 1059,-139.129 966.496,-96.407 898.563,-75.6673"/>
</g>
<!-- ActiveRecord::Base&#45;&gt;Skill -->
<g id="edge24" class="edge"><title>ActiveRecord::Base&#45;&gt;Skill</title>
<path fill="none" stroke="black" d="M621.969,-664.868C605.513,-658.269 585.863,-650.559 568,-644 518.656,-625.882 486.621,-648.725 456,-606 419.254,-554.729 438.173,-370.136 450.76,-276.023"/>
</g>
<!-- ActiveRecord::Base&#45;&gt;User -->
<g id="edge26" class="edge"><title>ActiveRecord::Base&#45;&gt;User</title>
<path fill="none" stroke="black" d="M668.151,-662.874C676.045,-648.102 687.902,-625.912 699.058,-605.034"/>
</g>
</g>
</svg>
