<?xml version="1.0" encoding="UTF-8" standalone="no"?>
<!DOCTYPE svg PUBLIC "-//W3C//DTD SVG 1.1//EN"
 "http://www.w3.org/Graphics/SVG/1.1/DTD/svg11.dtd">
<!-- Generated by graphviz version 2.36.0 (20140111.2315)
 -->
<!-- Title: models_diagram Pages: 1 -->
<svg width="654pt" height="378pt"
 viewBox="0.00 0.00 654.00 378.00" xmlns="http://www.w3.org/2000/svg" xmlns:xlink="http://www.w3.org/1999/xlink">
<g id="graph0" class="graph" transform="scale(1 1) rotate(0) translate(4 374)">
<title>models_diagram</title>
<polygon fill="white" stroke="none" points="-4,4 -4,-374 650,-374 650,4 -4,4"/>
<!-- _diagram_info -->
<g id="node1" class="node"><title>_diagram_info</title>
<text text-anchor="start" x="28.3123" y="-355.1" font-family="Times,serif" font-size="13.00">Models diagram</text>
<text text-anchor="start" x="28.3123" y="-342.1" font-family="Times,serif" font-size="13.00">Date: Feb 02 2014 &#45; 20:35</text>
<text text-anchor="start" x="28.3123" y="-329.1" font-family="Times,serif" font-size="13.00">Migration version: 20140202161047</text>
<text text-anchor="start" x="28.3123" y="-316.1" font-family="Times,serif" font-size="13.00">Generated by RailRoady 1.1.1</text>
<text text-anchor="start" x="28.3123" y="-303.1" font-family="Times,serif" font-size="13.00">http://railroady.prestonlee.com</text>
</g>
<!-- Characteristic -->
<g id="node2" class="node"><title>Characteristic</title>
<ellipse fill="none" stroke="black" cx="142" cy="-240" rx="59.3187" ry="18"/>
<text text-anchor="middle" x="142" y="-235.8" font-family="Times,serif" font-size="14.00">Characteristic</text>
</g>
<!-- Player -->
<g id="node8" class="node"><title>Player</title>
<ellipse fill="none" stroke="black" cx="142" cy="-166" rx="32.5477" ry="18"/>
<text text-anchor="middle" x="142" y="-161.8" font-family="Times,serif" font-size="14.00">Player</text>
</g>
<!-- Characteristic&#45;&gt;Player -->
<g id="edge1" class="edge"><title>Characteristic&#45;&gt;Player</title>
<path fill="none" stroke="#040ecf" d="M142,-211.719C142,-206.145 142,-200.274 142,-194.686"/>
<polygon fill="#040ecf" stroke="#040ecf" points="142,-211.937 137.5,-221.937 142,-216.937 142,-221.937 142,-221.937 142,-221.937 142,-216.937 146.5,-221.937 142,-211.937 142,-211.937"/>
<polygon fill="#040ecf" stroke="#040ecf" points="142,-194.441 146.5,-184.441 142,-189.441 142,-184.441 142,-184.441 142,-184.441 142,-189.441 137.5,-184.441 142,-194.441 142,-194.441"/>
</g>
<!-- Entity -->
<g id="node3" class="node"><title>Entity</title>
<ellipse fill="none" stroke="black" cx="433" cy="-166" rx="31.5839" ry="18"/>
<text text-anchor="middle" x="433" y="-161.8" font-family="Times,serif" font-size="14.00">Entity</text>
</g>
<!-- Interaction -->
<g id="node5" class="node"><title>Interaction</title>
<ellipse fill="none" stroke="black" cx="397" cy="-18" rx="48.1131" ry="18"/>
<text text-anchor="middle" x="397" y="-13.8" font-family="Times,serif" font-size="14.00">Interaction</text>
</g>
<!-- Entity&#45;&gt;Interaction -->
<g id="edge3" class="edge"><title>Entity&#45;&gt;Interaction</title>
<path fill="none" stroke="#a71a49" d="M426.311,-137.872C419.878,-111.785 410.206,-72.5569 403.752,-46.384"/>
<polygon fill="#a71a49" stroke="#a71a49" points="426.406,-138.257 424.431,-149.044 427.603,-143.112 428.8,-147.966 428.8,-147.966 428.8,-147.966 427.603,-143.112 433.169,-146.889 426.406,-138.257 426.406,-138.257"/>
<polygon fill="#a71a49" stroke="#a71a49" points="403.679,-46.0871 405.654,-35.3005 402.482,-41.2325 401.285,-36.3779 401.285,-36.3779 401.285,-36.3779 402.482,-41.2325 396.916,-37.4552 403.679,-46.0871 403.679,-46.0871"/>
</g>
<!-- EntityType -->
<g id="node4" class="node"><title>EntityType</title>
<ellipse fill="none" stroke="black" cx="378" cy="-240" rx="48.9161" ry="18"/>
<text text-anchor="middle" x="378" y="-235.8" font-family="Times,serif" font-size="14.00">EntityType</text>
</g>
<!-- EntityType&#45;&gt;Entity -->
<g id="edge5" class="edge"><title>EntityType&#45;&gt;Entity</title>
<path fill="none" stroke="#d797fa" d="M395.638,-215.91C401.7,-207.974 408.499,-199.073 414.619,-191.062"/>
<ellipse fill="none" stroke="#d797fa" cx="393.185" cy="-219.122" rx="4.00002" ry="4.00002"/>
<polygon fill="#d797fa" stroke="#d797fa" points="414.621,-191.06 424.267,-185.845 417.656,-187.087 420.691,-183.113 420.691,-183.113 420.691,-183.113 417.656,-187.087 417.115,-180.382 414.621,-191.06 414.621,-191.06"/>
</g>
<!-- EntityType&#45;&gt;Interaction -->
<g id="edge6" class="edge"><title>EntityType&#45;&gt;Interaction</title>
<path fill="none" stroke="#d8cab6" d="M380.366,-211.602C384.02,-169.292 390.995,-88.5325 394.643,-46.2884"/>
<polygon fill="#d8cab6" stroke="#d8cab6" points="380.351,-211.774 375.008,-221.35 379.921,-216.756 379.491,-221.737 379.491,-221.737 379.491,-221.737 379.921,-216.756 383.974,-222.124 380.351,-211.774 380.351,-211.774"/>
<polygon fill="#d8cab6" stroke="#d8cab6" points="394.656,-46.1458 399.999,-36.5701 395.086,-41.1643 395.516,-36.1828 395.516,-36.1828 395.516,-36.1828 395.086,-41.1643 391.033,-35.7956 394.656,-46.1458 394.656,-46.1458"/>
</g>
<!-- Item -->
<g id="node6" class="node"><title>Item</title>
<ellipse fill="none" stroke="black" cx="552" cy="-166" rx="27" ry="18"/>
<text text-anchor="middle" x="552" y="-161.8" font-family="Times,serif" font-size="14.00">Item</text>
</g>
<!-- ItemType -->
<g id="node7" class="node"><title>ItemType</title>
<ellipse fill="none" stroke="black" cx="603" cy="-240" rx="43.3003" ry="18"/>
<text text-anchor="middle" x="603" y="-235.8" font-family="Times,serif" font-size="14.00">ItemType</text>
</g>
<!-- ItemType&#45;&gt;Item -->
<g id="edge10" class="edge"><title>ItemType&#45;&gt;Item</title>
<path fill="none" stroke="#4be5e0" d="M586.36,-215.509C580.751,-207.589 574.488,-198.747 568.861,-190.804"/>
<ellipse fill="none" stroke="#4be5e0" cx="588.859" cy="-219.037" rx="4.00002" ry="4.00002"/>
<polygon fill="#4be5e0" stroke="#4be5e0" points="568.846,-190.783 566.738,-180.022 565.956,-186.703 563.066,-182.623 563.066,-182.623 563.066,-182.623 565.956,-186.703 559.394,-185.224 568.846,-190.783 568.846,-190.783"/>
</g>
<!-- PlayerSkill -->
<g id="node9" class="node"><title>PlayerSkill</title>
<ellipse fill="none" stroke="black" cx="49" cy="-92" rx="49.1158" ry="18"/>
<text text-anchor="middle" x="49" y="-87.8" font-family="Times,serif" font-size="14.00">PlayerSkill</text>
</g>
<!-- Player&#45;&gt;PlayerSkill -->
<g id="edge12" class="edge"><title>Player&#45;&gt;PlayerSkill</title>
<path fill="none" stroke="#db6b35" d="M117.053,-145.686C104.781,-136.186 89.9389,-124.695 77.2508,-114.872"/>
<ellipse fill="none" stroke="#db6b35" cx="120.463" cy="-148.326" rx="4.00002" ry="4.00002"/>
<polygon fill="#db6b35" stroke="#db6b35" points="77.1801,-114.817 72.0276,-105.137 73.2264,-111.756 69.2728,-108.695 69.2728,-108.695 69.2728,-108.695 73.2264,-111.756 66.518,-112.253 77.1801,-114.817 77.1801,-114.817"/>
</g>
<!-- Skill -->
<g id="node10" class="node"><title>Skill</title>
<ellipse fill="none" stroke="black" cx="254" cy="-92" rx="27" ry="18"/>
<text text-anchor="middle" x="254" y="-87.8" font-family="Times,serif" font-size="14.00">Skill</text>
</g>
<!-- Player&#45;&gt;Skill -->
<g id="edge13" class="edge"><title>Player&#45;&gt;Skill</title>
<path fill="none" stroke="#a849ad" d="M170.785,-146.495C187.817,-135.546 209.285,-121.745 226.15,-110.903"/>
<polygon fill="#a849ad" stroke="#a849ad" points="170.694,-146.554 159.849,-148.176 166.488,-149.258 162.282,-151.961 162.282,-151.961 162.282,-151.961 166.488,-149.258 164.716,-155.747 170.694,-146.554 170.694,-146.554"/>
<polygon fill="#a849ad" stroke="#a849ad" points="226.577,-110.629 237.422,-109.007 230.783,-107.925 234.989,-105.221 234.989,-105.221 234.989,-105.221 230.783,-107.925 232.555,-101.436 226.577,-110.629 226.577,-110.629"/>
</g>
<!-- Skill&#45;&gt;Interaction -->
<g id="edge16" class="edge"><title>Skill&#45;&gt;Interaction</title>
<path fill="none" stroke="#20d5d0" d="M284.202,-75.7936C306.444,-64.5946 336.8,-49.3103 360.419,-37.4185"/>
<polygon fill="#20d5d0" stroke="#20d5d0" points="284.032,-75.879 273.076,-76.3569 279.566,-78.1276 275.1,-80.3762 275.1,-80.3762 275.1,-80.3762 279.566,-78.1276 277.124,-84.3954 284.032,-75.879 284.032,-75.879"/>
<polygon fill="#20d5d0" stroke="#20d5d0" points="360.502,-37.3768 371.457,-36.8989 364.968,-35.1282 369.433,-32.8797 369.433,-32.8797 369.433,-32.8797 364.968,-35.1282 367.41,-28.8604 360.502,-37.3768 360.502,-37.3768"/>
</g>
<!-- Skill&#45;&gt;Skill -->
<g id="edge17" class="edge"><title>Skill&#45;&gt;Skill</title>
<path fill="none" stroke="#8d950a" d="M289.488,-98.2124C295.136,-97.3008 299,-95.23 299,-92 299,-88.77 295.136,-86.6992 289.488,-85.7876"/>
<polygon fill="#8d950a" stroke="#8d950a" points="289.432,-98.2149 279.229,-94.1958 284.438,-98.4528 279.443,-98.6907 279.443,-98.6907 279.443,-98.6907 284.438,-98.4528 279.658,-103.186 289.432,-98.2149 289.432,-98.2149"/>
<polygon fill="#8d950a" stroke="#8d950a" points="289.432,-85.7851 279.658,-80.8144 284.438,-85.5472 279.443,-85.3093 279.443,-85.3093 279.443,-85.3093 284.438,-85.5472 279.229,-89.8042 289.432,-85.7851 289.432,-85.7851"/>
<text text-anchor="middle" x="322.321" y="-87.8" font-family="Times,serif" font-size="14.00">required</text>
</g>
<!-- User -->
<g id="node11" class="node"><title>User</title>
<ellipse fill="none" stroke="black" cx="246" cy="-240" rx="27" ry="18"/>
<text text-anchor="middle" x="246" y="-235.8" font-family="Times,serif" font-size="14.00">User</text>
</g>
<!-- User&#45;&gt;Player -->
<g id="edge19" class="edge"><title>User&#45;&gt;Player</title>
<path fill="none" stroke="#1f6554" d="M220.992,-221.687C205.07,-210.664 184.476,-196.406 168.308,-185.213"/>
<ellipse fill="none" stroke="#1f6554" cx="224.596" cy="-224.182" rx="4.00002" ry="4.00002"/>
<ellipse fill="#1f6554" stroke="#1f6554" cx="164.965" cy="-182.899" rx="4.00002" ry="4.00002"/>
</g>
<!-- ActiveRecord::Base -->
<g id="node12" class="node"><title>ActiveRecord::Base</title>
<ellipse fill="none" stroke="black" cx="327" cy="-333" rx="80.9821" ry="18"/>
<text text-anchor="middle" x="327" y="-328.8" font-family="Times,serif" font-size="14.00">ActiveRecord::Base</text>
</g>
<!-- ActiveRecord::Base&#45;&gt;Characteristic -->
<g id="edge2" class="edge"><title>ActiveRecord::Base&#45;&gt;Characteristic</title>
<path fill="none" stroke="black" d="M295.197,-316.357C260.589,-299.333 205.684,-272.326 171.859,-255.687"/>
</g>
<!-- ActiveRecord::Base&#45;&gt;Entity -->
<g id="edge4" class="edge"><title>ActiveRecord::Base&#45;&gt;Entity</title>
<path fill="none" stroke="black" d="M365.708,-317.105C390.704,-305.216 421.224,-285.892 436,-258 448.358,-234.673 443.316,-203.055 438.317,-183.89"/>
</g>
<!-- ActiveRecord::Base&#45;&gt;EntityType -->
<g id="edge7" class="edge"><title>ActiveRecord::Base&#45;&gt;EntityType</title>
<path fill="none" stroke="black" d="M336.593,-314.884C345.768,-298.511 359.519,-273.975 368.623,-257.732"/>
</g>
<!-- ActiveRecord::Base&#45;&gt;Interaction -->
<g id="edge8" class="edge"><title>ActiveRecord::Base&#45;&gt;Interaction</title>
<path fill="none" stroke="black" d="M393.085,-322.501C439.377,-311.678 493,-288.82 493,-241 493,-241 493,-241 493,-91 493,-59.9583 460.479,-40.6604 433.293,-29.9514"/>
</g>
<!-- ActiveRecord::Base&#45;&gt;Item -->
<g id="edge9" class="edge"><title>ActiveRecord::Base&#45;&gt;Item</title>
<path fill="none" stroke="black" d="M400.022,-324.96C435.999,-318.094 477.809,-304.577 507,-278 534.523,-252.942 545.558,-208.657 549.706,-184.284"/>
</g>
<!-- ActiveRecord::Base&#45;&gt;ItemType -->
<g id="edge11" class="edge"><title>ActiveRecord::Base&#45;&gt;ItemType</title>
<path fill="none" stroke="black" d="M390.774,-321.864C435.204,-313.455 495.194,-299.371 545,-278 558.391,-272.254 572.191,-263.582 582.969,-256.077"/>
</g>
<!-- ActiveRecord::Base&#45;&gt;Player -->
<g id="edge14" class="edge"><title>ActiveRecord::Base&#45;&gt;Player</title>
<path fill="none" stroke="black" d="M291.561,-316.582C274.902,-309.698 254.645,-301.84 236,-296 165.427,-273.894 119.936,-315.958 74,-258 64.0618,-245.461 67.1076,-236.439 74,-222 83.2225,-202.679 102.914,-187.957 118.745,-178.628"/>
</g>
<!-- ActiveRecord::Base&#45;&gt;PlayerSkill -->
<g id="edge15" class="edge"><title>ActiveRecord::Base&#45;&gt;PlayerSkill</title>
<path fill="none" stroke="black" d="M293.543,-316.39C276.634,-309.117 255.593,-300.988 236,-296 160.132,-276.686 101.076,-326.952 64,-258 37.9816,-209.612 42.4377,-141.58 46.3779,-110.152"/>
</g>
<!-- ActiveRecord::Base&#45;&gt;Skill -->
<g id="edge18" class="edge"><title>ActiveRecord::Base&#45;&gt;Skill</title>
<path fill="none" stroke="black" d="M321.75,-314.812C308.248,-270.607 272.446,-153.391 259.105,-109.714"/>
</g>
<!-- ActiveRecord::Base&#45;&gt;User -->
<g id="edge20" class="edge"><title>ActiveRecord::Base&#45;&gt;User</title>
<path fill="none" stroke="black" d="M311.765,-314.884C296.641,-297.893 273.693,-272.112 259.289,-255.93"/>
</g>
</g>
</svg>
