<?xml version="1.0" encoding="UTF-8" standalone="no"?>
<!DOCTYPE svg PUBLIC "-//W3C//DTD SVG 1.1//EN"
 "http://www.w3.org/Graphics/SVG/1.1/DTD/svg11.dtd">
<!-- Generated by graphviz version 2.36.0 (20140111.2315)
 -->
<!-- Title: models_diagram Pages: 1 -->
<svg width="839pt" height="698pt"
 viewBox="0.00 0.00 838.53 698.00" xmlns="http://www.w3.org/2000/svg" xmlns:xlink="http://www.w3.org/1999/xlink">
<g id="graph0" class="graph" transform="scale(1 1) rotate(0) translate(4 694)">
<title>models_diagram</title>
<polygon fill="white" stroke="none" points="-4,4 -4,-694 834.525,-694 834.525,4 -4,4"/>
<!-- _diagram_info -->
<g id="node1" class="node"><title>_diagram_info</title>
<text text-anchor="start" x="124.838" y="-675.1" font-family="Times,serif" font-size="13.00">Models diagram</text>
<text text-anchor="start" x="124.838" y="-662.1" font-family="Times,serif" font-size="13.00">Date: Feb 02 2014 &#45; 20:35</text>
<text text-anchor="start" x="124.838" y="-649.1" font-family="Times,serif" font-size="13.00">Migration version: 20140202161047</text>
<text text-anchor="start" x="124.838" y="-636.1" font-family="Times,serif" font-size="13.00">Generated by RailRoady 1.1.1</text>
<text text-anchor="start" x="124.838" y="-623.1" font-family="Times,serif" font-size="13.00">http://railroady.prestonlee.com</text>
</g>
<!-- Characteristic -->
<g id="node2" class="node"><title>Characteristic</title>
<path fill="none" stroke="black" d="M78.0201,-470C78.0201,-470 187.031,-470 187.031,-470 193.031,-470 199.031,-476 199.031,-482 199.031,-482 199.031,-558 199.031,-558 199.031,-564 193.031,-570 187.031,-570 187.031,-570 78.0201,-570 78.0201,-570 72.0201,-570 66.0201,-564 66.0201,-558 66.0201,-558 66.0201,-482 66.0201,-482 66.0201,-476 72.0201,-470 78.0201,-470"/>
<text text-anchor="middle" x="132.525" y="-554.8" font-family="Times,serif" font-size="14.00">Characteristic</text>
<polyline fill="none" stroke="black" points="66.0201,-548 199.031,-548 "/>
<text text-anchor="start" x="74.0201" y="-532.8" font-family="Times,serif" font-size="14.00">id :integer</text>
<text text-anchor="start" x="74.0201" y="-518.8" font-family="Times,serif" font-size="14.00">title :string</text>
<text text-anchor="start" x="74.0201" y="-504.8" font-family="Times,serif" font-size="14.00">attributes :hstore</text>
<text text-anchor="start" x="74.0201" y="-490.8" font-family="Times,serif" font-size="14.00">created_at :datetime</text>
<text text-anchor="start" x="74.0201" y="-476.8" font-family="Times,serif" font-size="14.00">updated_at :datetime</text>
</g>
<!-- Player -->
<g id="node8" class="node"><title>Player</title>
<path fill="none" stroke="black" d="M78.0201,-295C78.0201,-295 187.031,-295 187.031,-295 193.031,-295 199.031,-301 199.031,-307 199.031,-307 199.031,-397 199.031,-397 199.031,-403 193.031,-409 187.031,-409 187.031,-409 78.0201,-409 78.0201,-409 72.0201,-409 66.0201,-403 66.0201,-397 66.0201,-397 66.0201,-307 66.0201,-307 66.0201,-301 72.0201,-295 78.0201,-295"/>
<text text-anchor="middle" x="132.525" y="-393.8" font-family="Times,serif" font-size="14.00">Player</text>
<polyline fill="none" stroke="black" points="66.0201,-387 199.031,-387 "/>
<text text-anchor="start" x="74.0201" y="-371.8" font-family="Times,serif" font-size="14.00">id :integer</text>
<text text-anchor="start" x="74.0201" y="-357.8" font-family="Times,serif" font-size="14.00">user_id :integer</text>
<text text-anchor="start" x="74.0201" y="-343.8" font-family="Times,serif" font-size="14.00">latitude :decimal</text>
<text text-anchor="start" x="74.0201" y="-329.8" font-family="Times,serif" font-size="14.00">longitude :decimal</text>
<text text-anchor="start" x="74.0201" y="-315.8" font-family="Times,serif" font-size="14.00">created_at :datetime</text>
<text text-anchor="start" x="74.0201" y="-301.8" font-family="Times,serif" font-size="14.00">updated_at :datetime</text>
</g>
<!-- Characteristic&#45;&gt;Player -->
<g id="edge1" class="edge"><title>Characteristic&#45;&gt;Player</title>
<path fill="none" stroke="#0275c2" d="M132.525,-459.612C132.525,-446.517 132.525,-432.566 132.525,-419.22"/>
<polygon fill="#0275c2" stroke="#0275c2" points="132.526,-459.644 128.025,-469.644 132.526,-464.644 132.525,-469.644 132.525,-469.644 132.525,-469.644 132.526,-464.644 137.025,-469.644 132.526,-459.644 132.526,-459.644"/>
<polygon fill="#0275c2" stroke="#0275c2" points="132.526,-419.156 137.025,-409.156 132.526,-414.156 132.525,-409.156 132.525,-409.156 132.525,-409.156 132.526,-414.156 128.025,-409.156 132.526,-419.156 132.526,-419.156"/>
</g>
<!-- Entity -->
<g id="node3" class="node"><title>Entity</title>
<path fill="none" stroke="black" d="M471.958,-281C471.958,-281 591.093,-281 591.093,-281 597.093,-281 603.093,-287 603.093,-293 603.093,-293 603.093,-411 603.093,-411 603.093,-417 597.093,-423 591.093,-423 591.093,-423 471.958,-423 471.958,-423 465.958,-423 459.958,-417 459.958,-411 459.958,-411 459.958,-293 459.958,-293 459.958,-287 465.958,-281 471.958,-281"/>
<text text-anchor="middle" x="531.525" y="-407.8" font-family="Times,serif" font-size="14.00">Entity</text>
<polyline fill="none" stroke="black" points="459.958,-401 603.093,-401 "/>
<text text-anchor="start" x="467.958" y="-385.8" font-family="Times,serif" font-size="14.00">id :integer</text>
<text text-anchor="start" x="467.958" y="-371.8" font-family="Times,serif" font-size="14.00">entity_type_id :integer</text>
<text text-anchor="start" x="467.958" y="-357.8" font-family="Times,serif" font-size="14.00">title :string</text>
<text text-anchor="start" x="467.958" y="-343.8" font-family="Times,serif" font-size="14.00">attributes :hstore</text>
<text text-anchor="start" x="467.958" y="-329.8" font-family="Times,serif" font-size="14.00">latitude :decimal</text>
<text text-anchor="start" x="467.958" y="-315.8" font-family="Times,serif" font-size="14.00">longitude :decimal</text>
<text text-anchor="start" x="467.958" y="-301.8" font-family="Times,serif" font-size="14.00">created_at :datetime</text>
<text text-anchor="start" x="467.958" y="-287.8" font-family="Times,serif" font-size="14.00">updated_at :datetime</text>
</g>
<!-- Interaction -->
<g id="node5" class="node"><title>Interaction</title>
<path fill="none" stroke="black" d="M411.02,-1C411.02,-1 520.031,-1 520.031,-1 526.031,-1 532.031,-7 532.031,-13 532.031,-13 532.031,-75 532.031,-75 532.031,-81 526.031,-87 520.031,-87 520.031,-87 411.02,-87 411.02,-87 405.02,-87 399.02,-81 399.02,-75 399.02,-75 399.02,-13 399.02,-13 399.02,-7 405.02,-1 411.02,-1"/>
<text text-anchor="middle" x="465.525" y="-71.8" font-family="Times,serif" font-size="14.00">Interaction</text>
<polyline fill="none" stroke="black" points="399.02,-65 532.031,-65 "/>
<text text-anchor="start" x="407.02" y="-49.8" font-family="Times,serif" font-size="14.00">id :integer</text>
<text text-anchor="start" x="407.02" y="-35.8" font-family="Times,serif" font-size="14.00">title :string</text>
<text text-anchor="start" x="407.02" y="-21.8" font-family="Times,serif" font-size="14.00">created_at :datetime</text>
<text text-anchor="start" x="407.02" y="-7.8" font-family="Times,serif" font-size="14.00">updated_at :datetime</text>
</g>
<!-- Entity&#45;&gt;Interaction -->
<g id="edge3" class="edge"><title>Entity&#45;&gt;Interaction</title>
<path fill="none" stroke="#880a1c" d="M514.222,-270.777C502.366,-215.808 486.986,-144.501 476.714,-96.8723"/>
<polygon fill="#880a1c" stroke="#880a1c" points="514.275,-271.022 511.985,-281.746 515.329,-275.91 516.384,-280.797 516.384,-280.797 516.384,-280.797 515.329,-275.91 520.783,-279.849 514.275,-271.022 514.275,-271.022"/>
<polygon fill="#880a1c" stroke="#880a1c" points="476.711,-96.8579 479.001,-86.1339 475.656,-91.9703 474.602,-87.0827 474.602,-87.0827 474.602,-87.0827 475.656,-91.9703 470.203,-88.0315 476.711,-96.8579 476.711,-96.8579"/>
</g>
<!-- EntityType -->
<g id="node4" class="node"><title>EntityType</title>
<path fill="none" stroke="black" d="M434.02,-470C434.02,-470 543.031,-470 543.031,-470 549.031,-470 555.031,-476 555.031,-482 555.031,-482 555.031,-558 555.031,-558 555.031,-564 549.031,-570 543.031,-570 543.031,-570 434.02,-570 434.02,-570 428.02,-570 422.02,-564 422.02,-558 422.02,-558 422.02,-482 422.02,-482 422.02,-476 428.02,-470 434.02,-470"/>
<text text-anchor="middle" x="488.525" y="-554.8" font-family="Times,serif" font-size="14.00">EntityType</text>
<polyline fill="none" stroke="black" points="422.02,-548 555.031,-548 "/>
<text text-anchor="start" x="430.02" y="-532.8" font-family="Times,serif" font-size="14.00">id :integer</text>
<text text-anchor="start" x="430.02" y="-518.8" font-family="Times,serif" font-size="14.00">name :string</text>
<text text-anchor="start" x="430.02" y="-504.8" font-family="Times,serif" font-size="14.00">description :text</text>
<text text-anchor="start" x="430.02" y="-490.8" font-family="Times,serif" font-size="14.00">created_at :datetime</text>
<text text-anchor="start" x="430.02" y="-476.8" font-family="Times,serif" font-size="14.00">updated_at :datetime</text>
</g>
<!-- EntityType&#45;&gt;Entity -->
<g id="edge5" class="edge"><title>EntityType&#45;&gt;Entity</title>
<path fill="none" stroke="#d8692b" d="M503.391,-461.613C505.805,-452.291 508.344,-442.493 510.866,-432.753"/>
<ellipse fill="none" stroke="#d8692b" cx="502.314" cy="-465.772" rx="4.00001" ry="4.00001"/>
<polygon fill="#d8692b" stroke="#d8692b" points="510.871,-432.735 517.735,-424.182 512.125,-427.894 513.379,-423.054 513.379,-423.054 513.379,-423.054 512.125,-427.894 509.023,-421.926 510.871,-432.735 510.871,-432.735"/>
</g>
<!-- EntityType&#45;&gt;Interaction -->
<g id="edge6" class="edge"><title>EntityType&#45;&gt;Interaction</title>
<path fill="none" stroke="#df4d6a" d="M460.982,-460.122C456.645,-448.395 452.835,-435.992 450.525,-424 428.374,-308.977 444.249,-170.812 456,-97.2019"/>
<polygon fill="#df4d6a" stroke="#df4d6a" points="461.115,-460.467 460.532,-471.417 462.922,-465.129 464.728,-469.791 464.728,-469.791 464.728,-469.791 462.922,-465.129 468.924,-468.165 461.115,-460.467 461.115,-460.467"/>
<polygon fill="#df4d6a" stroke="#df4d6a" points="456.013,-97.1218 462.067,-87.9788 456.82,-92.1873 457.626,-87.2528 457.626,-87.2528 457.626,-87.2528 456.82,-92.1873 453.185,-86.5268 456.013,-97.1218 456.013,-97.1218"/>
</g>
<!-- Item -->
<g id="node6" class="node"><title>Item</title>
<path fill="none" stroke="black" d="M680.458,-295C680.458,-295 792.593,-295 792.593,-295 798.593,-295 804.593,-301 804.593,-307 804.593,-307 804.593,-397 804.593,-397 804.593,-403 798.593,-409 792.593,-409 792.593,-409 680.458,-409 680.458,-409 674.458,-409 668.458,-403 668.458,-397 668.458,-397 668.458,-307 668.458,-307 668.458,-301 674.458,-295 680.458,-295"/>
<text text-anchor="middle" x="736.525" y="-393.8" font-family="Times,serif" font-size="14.00">Item</text>
<polyline fill="none" stroke="black" points="668.458,-387 804.593,-387 "/>
<text text-anchor="start" x="676.458" y="-371.8" font-family="Times,serif" font-size="14.00">id :integer</text>
<text text-anchor="start" x="676.458" y="-357.8" font-family="Times,serif" font-size="14.00">item_type_id :integer</text>
<text text-anchor="start" x="676.458" y="-343.8" font-family="Times,serif" font-size="14.00">title :string</text>
<text text-anchor="start" x="676.458" y="-329.8" font-family="Times,serif" font-size="14.00">attributes :hstore</text>
<text text-anchor="start" x="676.458" y="-315.8" font-family="Times,serif" font-size="14.00">created_at :datetime</text>
<text text-anchor="start" x="676.458" y="-301.8" font-family="Times,serif" font-size="14.00">updated_at :datetime</text>
</g>
<!-- ItemType -->
<g id="node7" class="node"><title>ItemType</title>
<path fill="none" stroke="black" d="M710.02,-470C710.02,-470 819.031,-470 819.031,-470 825.031,-470 831.031,-476 831.031,-482 831.031,-482 831.031,-558 831.031,-558 831.031,-564 825.031,-570 819.031,-570 819.031,-570 710.02,-570 710.02,-570 704.02,-570 698.02,-564 698.02,-558 698.02,-558 698.02,-482 698.02,-482 698.02,-476 704.02,-470 710.02,-470"/>
<text text-anchor="middle" x="764.525" y="-554.8" font-family="Times,serif" font-size="14.00">ItemType</text>
<polyline fill="none" stroke="black" points="698.02,-548 831.031,-548 "/>
<text text-anchor="start" x="706.02" y="-532.8" font-family="Times,serif" font-size="14.00">id :integer</text>
<text text-anchor="start" x="706.02" y="-518.8" font-family="Times,serif" font-size="14.00">name :string</text>
<text text-anchor="start" x="706.02" y="-504.8" font-family="Times,serif" font-size="14.00">description :text</text>
<text text-anchor="start" x="706.02" y="-490.8" font-family="Times,serif" font-size="14.00">created_at :datetime</text>
<text text-anchor="start" x="706.02" y="-476.8" font-family="Times,serif" font-size="14.00">updated_at :datetime</text>
</g>
<!-- ItemType&#45;&gt;Item -->
<g id="edge10" class="edge"><title>ItemType&#45;&gt;Item</title>
<path fill="none" stroke="#0c924f" d="M754.821,-461.466C752.521,-447.832 750.05,-433.183 747.691,-419.198"/>
<ellipse fill="none" stroke="#0c924f" cx="755.535" cy="-465.7" rx="4.00001" ry="4.00001"/>
<polygon fill="#0c924f" stroke="#0c924f" points="747.661,-419.016 750.435,-408.407 746.829,-414.086 745.998,-409.156 745.998,-409.156 745.998,-409.156 746.829,-414.086 741.56,-409.904 747.661,-419.016 747.661,-419.016"/>
</g>
<!-- PlayerSkill -->
<g id="node9" class="node"><title>PlayerSkill</title>
<path fill="none" stroke="black" d="M22.296,-127C22.296,-127 136.755,-127 136.755,-127 142.755,-127 148.755,-133 148.755,-139 148.755,-139 148.755,-229 148.755,-229 148.755,-235 142.755,-241 136.755,-241 136.755,-241 22.296,-241 22.296,-241 16.296,-241 10.296,-235 10.296,-229 10.296,-229 10.296,-139 10.296,-139 10.296,-133 16.296,-127 22.296,-127"/>
<text text-anchor="middle" x="79.5255" y="-225.8" font-family="Times,serif" font-size="14.00">PlayerSkill</text>
<polyline fill="none" stroke="black" points="10.296,-219 148.755,-219 "/>
<text text-anchor="start" x="18.296" y="-203.8" font-family="Times,serif" font-size="14.00">id :integer</text>
<text text-anchor="start" x="18.296" y="-189.8" font-family="Times,serif" font-size="14.00">player_id :integer</text>
<text text-anchor="start" x="18.296" y="-175.8" font-family="Times,serif" font-size="14.00">skill_id :integer</text>
<text text-anchor="start" x="18.296" y="-161.8" font-family="Times,serif" font-size="14.00">last_user_at :datetime</text>
<text text-anchor="start" x="18.296" y="-147.8" font-family="Times,serif" font-size="14.00">created_at :datetime</text>
<text text-anchor="start" x="18.296" y="-133.8" font-family="Times,serif" font-size="14.00">updated_at :datetime</text>
</g>
<!-- Player&#45;&gt;PlayerSkill -->
<g id="edge12" class="edge"><title>Player&#45;&gt;PlayerSkill</title>
<path fill="none" stroke="#5ee963" d="M112.088,-286.989C108.319,-275.183 104.376,-262.834 100.588,-250.971"/>
<ellipse fill="none" stroke="#5ee963" cx="113.365" cy="-290.989" rx="4.00001" ry="4.00001"/>
<polygon fill="#5ee963" stroke="#5ee963" points="100.492,-250.668 101.737,-239.773 98.9712,-245.905 97.4504,-241.142 97.4504,-241.142 97.4504,-241.142 98.9712,-245.905 93.1636,-242.511 100.492,-250.668 100.492,-250.668"/>
</g>
<!-- Skill -->
<g id="node10" class="node"><title>Skill</title>
<path fill="none" stroke="black" d="M218.02,-134C218.02,-134 327.031,-134 327.031,-134 333.031,-134 339.031,-140 339.031,-146 339.031,-146 339.031,-222 339.031,-222 339.031,-228 333.031,-234 327.031,-234 327.031,-234 218.02,-234 218.02,-234 212.02,-234 206.02,-228 206.02,-222 206.02,-222 206.02,-146 206.02,-146 206.02,-140 212.02,-134 218.02,-134"/>
<text text-anchor="middle" x="272.525" y="-218.8" font-family="Times,serif" font-size="14.00">Skill</text>
<polyline fill="none" stroke="black" points="206.02,-212 339.031,-212 "/>
<text text-anchor="start" x="214.02" y="-196.8" font-family="Times,serif" font-size="14.00">id :integer</text>
<text text-anchor="start" x="214.02" y="-182.8" font-family="Times,serif" font-size="14.00">title :string</text>
<text text-anchor="start" x="214.02" y="-168.8" font-family="Times,serif" font-size="14.00">attributes :hstore</text>
<text text-anchor="start" x="214.02" y="-154.8" font-family="Times,serif" font-size="14.00">created_at :datetime</text>
<text text-anchor="start" x="214.02" y="-140.8" font-family="Times,serif" font-size="14.00">updated_at :datetime</text>
</g>
<!-- Player&#45;&gt;Skill -->
<g id="edge13" class="edge"><title>Player&#45;&gt;Skill</title>
<path fill="none" stroke="#ecc893" d="M186.619,-286.86C199.063,-272.106 212.214,-256.512 224.386,-242.08"/>
<polygon fill="#ecc893" stroke="#ecc893" points="186.37,-287.156 176.483,-291.899 183.147,-290.978 179.923,-294.8 179.923,-294.8 179.923,-294.8 183.147,-290.978 183.363,-297.701 186.37,-287.156 186.37,-287.156"/>
<polygon fill="#ecc893" stroke="#ecc893" points="224.589,-241.839 234.476,-237.096 227.812,-238.017 231.036,-234.195 231.036,-234.195 231.036,-234.195 227.812,-238.017 227.596,-231.294 224.589,-241.839 224.589,-241.839"/>
</g>
<!-- Skill&#45;&gt;Interaction -->
<g id="edge16" class="edge"><title>Skill&#45;&gt;Interaction</title>
<path fill="none" stroke="#55e799" d="M347.524,-129.374C364.206,-117.446 381.79,-104.873 398.144,-93.1798"/>
<polygon fill="#55e799" stroke="#55e799" points="347.35,-129.499 336.598,-131.654 343.283,-132.407 339.215,-135.315 339.215,-135.315 339.215,-135.315 343.283,-132.407 341.833,-138.976 347.35,-129.499 347.35,-129.499"/>
<polygon fill="#55e799" stroke="#55e799" points="398.437,-92.9697 409.189,-90.8138 402.505,-90.0615 406.572,-87.1533 406.572,-87.1533 406.572,-87.1533 402.505,-90.0615 403.955,-83.4928 398.437,-92.9697 398.437,-92.9697"/>
</g>
<!-- Skill&#45;&gt;Skill -->
<g id="edge17" class="edge"><title>Skill&#45;&gt;Skill</title>
<path fill="none" stroke="#587d1a" d="M348.805,-194.024C353.621,-191.668 356.525,-188.327 356.525,-184 356.525,-179.673 353.621,-176.332 348.805,-173.976"/>
<polygon fill="#587d1a" stroke="#587d1a" points="348.617,-194.083 337.731,-192.763 343.844,-195.571 339.07,-197.059 339.07,-197.059 339.07,-197.059 343.844,-195.571 340.41,-201.355 348.617,-194.083 348.617,-194.083"/>
<polygon fill="#587d1a" stroke="#587d1a" points="348.617,-173.917 340.41,-166.645 343.844,-172.429 339.07,-170.941 339.07,-170.941 339.07,-170.941 343.844,-172.429 337.731,-175.237 348.617,-173.917 348.617,-173.917"/>
<text text-anchor="middle" x="379.846" y="-179.8" font-family="Times,serif" font-size="14.00">required</text>
</g>
<!-- User -->
<g id="node11" class="node"><title>User</title>
<path fill="none" stroke="black" d="M229.224,-463C229.224,-463 353.827,-463 353.827,-463 359.827,-463 365.827,-469 365.827,-475 365.827,-475 365.827,-565 365.827,-565 365.827,-571 359.827,-577 353.827,-577 353.827,-577 229.224,-577 229.224,-577 223.224,-577 217.224,-571 217.224,-565 217.224,-565 217.224,-475 217.224,-475 217.224,-469 223.224,-463 229.224,-463"/>
<text text-anchor="middle" x="291.525" y="-561.8" font-family="Times,serif" font-size="14.00">User</text>
<polyline fill="none" stroke="black" points="217.224,-555 365.827,-555 "/>
<text text-anchor="start" x="225.224" y="-539.8" font-family="Times,serif" font-size="14.00">id :integer</text>
<text text-anchor="start" x="225.224" y="-525.8" font-family="Times,serif" font-size="14.00">email :string</text>
<text text-anchor="start" x="225.224" y="-511.8" font-family="Times,serif" font-size="14.00">password_digest :string</text>
<text text-anchor="start" x="225.224" y="-497.8" font-family="Times,serif" font-size="14.00">nick :string</text>
<text text-anchor="start" x="225.224" y="-483.8" font-family="Times,serif" font-size="14.00">created_at :datetime</text>
<text text-anchor="start" x="225.224" y="-469.8" font-family="Times,serif" font-size="14.00">updated_at :datetime</text>
</g>
<!-- User&#45;&gt;Player -->
<g id="edge19" class="edge"><title>User&#45;&gt;Player</title>
<path fill="none" stroke="#4abc8b" d="M231.804,-456.649C218.733,-443.002 204.899,-428.56 191.843,-414.929"/>
<ellipse fill="none" stroke="#4abc8b" cx="234.928" cy="-459.911" rx="4.00002" ry="4.00002"/>
<ellipse fill="#4abc8b" stroke="#4abc8b" cx="189.067" cy="-412.031" rx="4.00002" ry="4.00002"/>
</g>
<!-- ActiveRecord::Base -->
<g id="node12" class="node"><title>ActiveRecord::Base</title>
<ellipse fill="none" stroke="black" cx="423.525" cy="-653" rx="80.9821" ry="18"/>
<text text-anchor="middle" x="423.525" y="-648.8" font-family="Times,serif" font-size="14.00">ActiveRecord::Base</text>
</g>
<!-- ActiveRecord::Base&#45;&gt;Characteristic -->
<g id="edge2" class="edge"><title>ActiveRecord::Base&#45;&gt;Characteristic</title>
<path fill="none" stroke="black" d="M387.024,-636.793C370.498,-630.107 350.644,-622.349 332.525,-616 278.128,-596.939 259.905,-604.127 208.525,-578 203.821,-575.608 199.105,-572.923 194.454,-570.056"/>
</g>
<!-- ActiveRecord::Base&#45;&gt;Entity -->
<g id="edge4" class="edge"><title>ActiveRecord::Base&#45;&gt;Entity</title>
<path fill="none" stroke="black" d="M475.653,-639.099C507.046,-628.35 544.513,-609.554 563.525,-578 591.524,-531.532 580.214,-470.071 563.745,-423.129"/>
</g>
<!-- ActiveRecord::Base&#45;&gt;EntityType -->
<g id="edge7" class="edge"><title>ActiveRecord::Base&#45;&gt;EntityType</title>
<path fill="none" stroke="black" d="M432.023,-634.874C440.179,-618.437 452.891,-592.818 464.193,-570.039"/>
</g>
<!-- ActiveRecord::Base&#45;&gt;Interaction -->
<g id="edge8" class="edge"><title>ActiveRecord::Base&#45;&gt;Interaction</title>
<path fill="none" stroke="black" d="M483.688,-640.802C545.118,-625.481 631.525,-591.416 631.525,-521 631.525,-521 631.525,-521 631.525,-183 631.525,-128.658 578.27,-91.6024 532.088,-69.6851"/>
</g>
<!-- ActiveRecord::Base&#45;&gt;Item -->
<g id="edge9" class="edge"><title>ActiveRecord::Base&#45;&gt;Item</title>
<path fill="none" stroke="black" d="M491.097,-642.959C547.898,-634.06 623.283,-618.787 645.525,-598 691.841,-554.715 666.162,-521.318 688.525,-462 695.09,-444.587 702.972,-425.945 710.433,-409.091"/>
</g>
<!-- ActiveRecord::Base&#45;&gt;ItemType -->
<g id="edge11" class="edge"><title>ActiveRecord::Base&#45;&gt;ItemType</title>
<path fill="none" stroke="black" d="M500.368,-647.198C554.209,-641.239 626.451,-627.89 683.525,-598 697.104,-590.889 710.016,-580.834 721.379,-570.329"/>
</g>
<!-- ActiveRecord::Base&#45;&gt;Player -->
<g id="edge14" class="edge"><title>ActiveRecord::Base&#45;&gt;Player</title>
<path fill="none" stroke="black" d="M390.036,-636.516C373.119,-629.274 352.081,-621.134 332.525,-616 272.643,-600.277 97.2088,-624.669 56.5255,-578 14.9371,-530.293 50.5466,-458.903 85.7293,-409.383"/>
</g>
<!-- ActiveRecord::Base&#45;&gt;PlayerSkill -->
<g id="edge15" class="edge"><title>ActiveRecord::Base&#45;&gt;PlayerSkill</title>
<path fill="none" stroke="black" d="M391.017,-636.342C373.994,-628.868 352.568,-620.575 332.525,-616 267.441,-601.142 71.758,-633.411 34.5255,-578 -34.4171,-475.396 15.8381,-322.786 51.7534,-241.216"/>
</g>
<!-- ActiveRecord::Base&#45;&gt;Skill -->
<g id="edge18" class="edge"><title>ActiveRecord::Base&#45;&gt;Skill</title>
<path fill="none" stroke="black" d="M419.702,-634.806C412.112,-601.275 394.169,-524.921 374.525,-462 349.25,-381.04 314.025,-288.989 292.278,-234.024"/>
</g>
<!-- ActiveRecord::Base&#45;&gt;User -->
<g id="edge20" class="edge"><title>ActiveRecord::Base&#45;&gt;User</title>
<path fill="none" stroke="black" d="M406.539,-635.142C391.708,-620.423 369.311,-598.196 348.211,-577.256"/>
</g>
</g>
</svg>
